<?xml version="1.0" encoding="UTF-8"?>
<svg id="cmsit-dark" xmlns="http://www.w3.org/2000/svg" viewBox="0 0 398.09 214.26">
  <g id="CMS_Logo" data-name="CMS Logo">
    <g>
      <g>
        <path d="M18.77,158.37c-2.56.52-4.87.78-6.91.78s-3.69-.28-4.95-.84c-1.26-.56-2.23-1.43-2.91-2.62-.68-1.18-1.16-2.54-1.42-4.07-.26-1.53-.39-3.44-.39-5.73s.13-4.21.39-5.77c.26-1.56.73-2.93,1.42-4.13.68-1.19,1.65-2.07,2.89-2.62,1.24-.55,2.86-.82,4.86-.82s4.33.27,7.02.82l-.11,2.43c-2.52-.45-4.76-.67-6.72-.67-2.74,0-4.55.82-5.43,2.45-.88,1.63-1.33,4.41-1.33,8.35,0,1.97.08,3.55.24,4.74.16,1.19.48,2.27.95,3.23.47.96,1.16,1.64,2.07,2.05.91.41,2.24.62,4,.62s3.83-.22,6.22-.67l.11,2.47Z" style="fill: #0e181a;"/>
        <path d="M23.11,158.78v-25.85h5.19l7.32,21.85,7.32-21.85h5.19v25.85h-2.88v-22.78h-.52l-7.51,21.85h-3.21l-7.51-21.85h-.52v22.78h-2.88Z" style="fill: #0e181a;"/>
        <path d="M61.11,135.06c-3.73,0-5.6,1.41-5.6,4.22,0,1.57.43,2.65,1.29,3.23.86.59,2.6,1.17,5.23,1.76,2.63.59,4.49,1.34,5.58,2.28,1.1.93,1.64,2.47,1.64,4.61,0,5.3-2.75,7.96-8.25,7.96-1.82,0-4.1-.21-6.83-.63l-1.34-.19.3-2.39c3.39.45,5.96.67,7.73.67,3.68,0,5.53-1.73,5.53-5.19,0-1.4-.41-2.4-1.21-3.01-.81-.61-2.32-1.13-4.54-1.55-2.91-.62-4.98-1.43-6.2-2.41-1.22-.98-1.83-2.63-1.83-4.95,0-4.63,2.78-6.95,8.33-6.95,1.82,0,4,.19,6.54.56l1.27.19-.26,2.43c-3.46-.42-5.91-.64-7.36-.64Z" style="fill: #0e181a;"/>
        <path d="M82.44,158.78v-25.85h2.88v25.85h-2.88Z" style="fill: #0e181a;"/>
        <path d="M89.1,135.51v-2.58h18.67v2.58h-7.88v23.27h-2.84v-23.27h-7.96Z" style="fill: #0e181a;"/>
        <path d="M107.9,149.82v-2.62h11.32v2.62h-11.32Z" style="fill: #0e181a;"/>
        <path d="M140.77,158.37c-2.56.52-4.87.78-6.91.78s-3.69-.28-4.95-.84c-1.26-.56-2.23-1.43-2.91-2.62-.68-1.18-1.16-2.54-1.42-4.07-.26-1.53-.39-3.44-.39-5.73s.13-4.21.39-5.77c.26-1.56.73-2.93,1.42-4.13.68-1.19,1.65-2.07,2.89-2.62,1.24-.55,2.86-.82,4.86-.82s4.33.27,7.02.82l-.11,2.43c-2.52-.45-4.76-.67-6.72-.67-2.74,0-4.55.82-5.43,2.45-.88,1.63-1.33,4.41-1.33,8.35,0,1.97.08,3.55.24,4.74.16,1.19.48,2.27.95,3.23.47.96,1.16,1.64,2.07,2.05.91.41,2.24.62,4,.62s3.83-.22,6.22-.67l.11,2.47Z" style="fill: #0e181a;"/>
        <path d="M143.84,149.41c0-3.41.61-5.88,1.83-7.4,1.22-1.52,3.28-2.28,6.18-2.28s4.95.76,6.16,2.28c1.21,1.52,1.81,3.98,1.81,7.4s-.57,5.89-1.72,7.43c-1.15,1.54-3.24,2.32-6.27,2.32s-5.13-.77-6.28-2.32c-1.15-1.54-1.72-4.02-1.72-7.43ZM146.72,149.35c0,2.73.33,4.64.99,5.73.66,1.1,2.04,1.64,4.15,1.64s3.48-.54,4.13-1.62c.65-1.08.97-3,.97-5.73s-.36-4.63-1.08-5.66c-.72-1.03-2.06-1.55-4.01-1.55s-3.3.52-4.03,1.55c-.74,1.03-1.1,2.91-1.1,5.64Z" style="fill: #0e181a;"/>
        <path d="M166.93,158.78h-2.8v-18.68h2.76v1.31c2.02-1.12,3.95-1.68,5.79-1.68,2.49,0,4.16.67,5.02,2.02.86,1.34,1.29,3.74,1.29,7.17v9.86h-2.76v-9.79c0-2.59-.26-4.36-.77-5.32-.51-.96-1.6-1.44-3.27-1.44-.8,0-1.64.12-2.52.36-.88.24-1.56.47-2.04.69l-.71.34v15.16Z" style="fill: #0e181a;"/>
        <path d="M189.68,142.23c-2.71,0-4.07.95-4.07,2.84,0,.87.31,1.49.93,1.85.62.36,2.04.73,4.26,1.12,2.22.39,3.78.93,4.71,1.62.92.7,1.38,2,1.38,3.92s-.62,3.32-1.85,4.22-3.03,1.34-5.4,1.34c-1.54,0-3.36-.17-5.45-.52l-1.12-.19.15-2.43c2.84.42,4.98.64,6.42.64s2.55-.23,3.31-.69c.76-.46,1.14-1.23,1.14-2.32s-.32-1.82-.97-2.2c-.65-.39-2.07-.75-4.26-1.1-2.19-.35-3.75-.86-4.67-1.53-.92-.67-1.38-1.92-1.38-3.74s.64-3.16,1.92-4.03c1.28-.87,2.88-1.31,4.8-1.31,1.52,0,3.42.17,5.71.52l1.05.19-.07,2.39c-2.76-.4-4.94-.6-6.54-.6Z" style="fill: #0e181a;"/>
        <path d="M212.52,140.11h2.8v18.68h-2.8v-1.31c-1.87,1.12-3.71,1.68-5.53,1.68-2.54,0-4.23-.66-5.06-1.98-.83-1.32-1.25-3.76-1.25-7.32v-9.75h2.8v9.71c0,2.71.24,4.53.71,5.45.47.92,1.54,1.38,3.21,1.38.82,0,1.66-.12,2.5-.36.85-.24,1.49-.47,1.94-.69l.67-.34v-15.16Z" style="fill: #0e181a;"/>
        <path d="M220.42,158.78v-26.82h2.8v26.82h-2.8Z" style="fill: #0e181a;"/>
        <path d="M238.31,142.53h-5.94v8.93c0,2.14.16,3.55.47,4.22.31.67,1.05,1.01,2.22,1.01l3.32-.22.19,2.32c-1.67.27-2.94.41-3.81.41-1.94,0-3.29-.47-4.03-1.42-.75-.95-1.12-2.75-1.12-5.41v-9.82h-2.65v-2.43h2.65v-5.71h2.76v5.71h5.94v2.43Z" style="fill: #0e181a;"/>
        <path d="M241.94,135.89v-3.25h2.8v3.25h-2.8ZM241.94,158.78v-18.68h2.8v18.68h-2.8Z" style="fill: #0e181a;"/>
        <path d="M252.51,158.78h-2.8v-18.68h2.76v1.31c2.02-1.12,3.95-1.68,5.79-1.68,2.49,0,4.16.67,5.02,2.02.86,1.34,1.29,3.74,1.29,7.17v9.86h-2.76v-9.79c0-2.59-.26-4.36-.77-5.32-.51-.96-1.6-1.44-3.27-1.44-.8,0-1.64.12-2.52.36-.88.24-1.56.47-2.04.69l-.71.34v15.16Z" style="fill: #0e181a;"/>
        <path d="M276.43,167.56c-2.99,0-5.07-.4-6.26-1.21-1.18-.81-1.77-2.28-1.77-4.43,0-1.02.22-1.85.67-2.48.45-.63,1.21-1.35,2.28-2.15-.7-.47-1.05-1.33-1.05-2.58,0-.42.31-1.21.93-2.35l.34-.6c-1.97-.9-2.95-2.78-2.95-5.64,0-4.26,2.33-6.39,6.98-6.39,1.19,0,2.3.12,3.32.37l.56.11,5.53-.15v2.39l-3.55-.08c.82.82,1.23,2.07,1.23,3.74,0,2.34-.58,3.98-1.74,4.91-1.16.93-2.98,1.4-5.47,1.4-.67,0-1.28-.05-1.83-.15-.45,1.1-.67,1.81-.67,2.13,0,.77.24,1.25.71,1.44.47.19,1.9.28,4.3.28s4.11.37,5.15,1.12c1.05.75,1.57,2.21,1.57,4.37,0,3.96-2.76,5.94-8.29,5.94ZM271.17,161.69c0,1.32.37,2.24,1.1,2.74.73.51,2.09.77,4.07.77s3.4-.27,4.26-.82c.86-.55,1.29-1.46,1.29-2.75s-.31-2.11-.93-2.48c-.62-.37-1.84-.56-3.66-.56l-4.03-.19c-.82.6-1.38,1.12-1.66,1.57-.29.45-.43,1.02-.43,1.72ZM271.43,146.12c0,1.47.33,2.52.99,3.14.66.62,1.75.93,3.27.93s2.6-.31,3.25-.93c.65-.62.97-1.67.97-3.15s-.32-2.53-.97-3.16c-.65-.62-1.73-.93-3.25-.93s-2.61.32-3.27.95c-.66.63-.99,1.69-.99,3.15Z" style="fill: #0e181a;"/>
        <path d="M307.36,148.14v-2.58h7.13v12.7c-3.14.6-5.94.9-8.4.9-3.76,0-6.37-1.08-7.82-3.25-1.46-2.17-2.18-5.51-2.18-10.03s.73-7.87,2.18-10.05c1.46-2.18,4.04-3.27,7.75-3.27,2.32,0,4.72.25,7.21.75l1.27.23-.11,2.39c-3.09-.52-5.76-.78-8.03-.78-2.86,0-4.79.83-5.79,2.48-1,1.66-1.49,4.41-1.49,8.25s.5,6.6,1.49,8.26c1,1.66,2.91,2.48,5.75,2.48,1.74,0,3.52-.17,5.34-.52v-7.96h-4.3Z" style="fill: #0e181a;"/>
        <path d="M322.32,158.78h-2.8v-18.68h2.76v1.31c1.87-1.12,3.68-1.68,5.45-1.68,2.32,0,3.93.63,4.86,1.9.82-.5,1.89-.94,3.19-1.33,1.31-.39,2.46-.58,3.45-.58,2.49,0,4.16.67,5.02,2,.86,1.33,1.29,3.73,1.29,7.19v9.86h-2.8v-9.79c0-2.59-.25-4.36-.75-5.32-.5-.96-1.56-1.44-3.17-1.44-.82,0-1.67.12-2.54.36-.87.24-1.54.47-2.02.69l-.71.34c.32.82.49,2.64.49,5.45v9.71h-2.8v-9.64c0-2.69-.24-4.51-.73-5.47-.49-.96-1.55-1.44-3.19-1.44-.8,0-1.61.12-2.45.36-.83.24-1.47.47-1.92.69l-.64.34v15.16Z" style="fill: #0e181a;"/>
        <path d="M358.67,139.73c2.51,0,4.28.72,5.28,2.15,1.01,1.43,1.51,3.94,1.51,7.53s-.63,6.11-1.89,7.56c-1.26,1.46-3.57,2.18-6.93,2.18-1.05,0-2.78-.1-5.19-.3l-1.05-.11v-26.78h2.76v9.08c1.89-.87,3.72-1.31,5.49-1.31ZM356.62,156.65c2.44,0,4.05-.55,4.84-1.66.78-1.11,1.18-2.98,1.18-5.62s-.31-4.49-.93-5.55c-.62-1.06-1.73-1.59-3.32-1.59-1.44,0-2.93.28-4.44.82l-.75.26v13.15c1.62.12,2.76.19,3.44.19Z" style="fill: #0e181a;"/>
        <path d="M386.33,158.78v-11.69h-13.15v11.69h-2.88v-25.85h2.88v11.58h13.15v-11.58h2.84v25.85h-2.84Z" style="fill: #0e181a;"/>
      </g>
      <g>
        <path d="M250.99,88.45h133.74c2.98-5.08,4.44-10.91,4.44-17.43,0-8.63-2.6-16.02-7.79-22.11-5.63-6.36-12.69-9.56-21.25-9.56h-64.66c-11.14,0-10.4-15.39,0-15.39h79.91c4.95,0,9-4.05,9-9v-5.98c0-4.95-4.05-9-9-9h-79.71c-8.51,0-15.52,3.14-20.97,9.4-5.46,6.25-8.2,13.72-8.2,22.36s2.67,15.99,7.99,21.98c5.6,6.4,12.66,9.6,21.18,9.6h64.53c8.29,0,8.31,15.37,0,15.37h-103.68V5.98c0-2.09-1.13-3.88-3.03-4.78-1.93-.92-4.15-.52-5.79.85-.61.51-1.15,1.11-1.64,1.81l-48.48,69.31c-1.74,2.5-4.35,6.04-7.39,6.04s-5.62-3.55-7.36-6.03l-37.89-54.11c-1.74-2.5-4.34-3.85-7.37-3.85H14.66C5.61,24.42,0,37.04,0,50.92v.86c0,28,22.91,50.92,50.92,50.92h53.15c4.97,0,9-4.03,9-9v-5.98c0-4.97-4.03-9-9-9h-53.05c-7.75,0-14.37-2.89-19.75-8.59-4.74-5.02-7.26-11.76-7.26-18.67v-.53c.03-14.88,12.15-26.98,27.03-26.98,24.47.01,48.95.03,73.43.03h0s7.9-.01,7.9-.01c2.78,0,5.16,1.28,6.7,3.61l16.79,25.17,26.57,37.85c1.73,2.47,4.34,3.82,7.36,3.82s5.63-1.36,7.37-3.82l35.26-50.24v53.34c0,4.97,4.03,9,9,9h118.79c8.65,0,15.85-3.24,21.44-9.86,0,0,0,0,0,0h-134c-2.78,0-5.04-2.26-5.04-5.04V18.34c0-1.84.57-3.64,1.62-5.15l1.62-2.32c.16-.23.43-.31.7-.24.26.08.43.33.43.6v73.2c0,2.23,1.8,4.03,4.03,4.03Z" style="fill: #0e181a;"/>
        <path d="M139.71,10.81c3.04,0,5.66,1.35,7.4,3.84,8.1,11.55,24.36,34.76,35.7,50.93,1.74,2.48,4.32,6.04,7.36,6.04s5.65-3.56,7.39-6.04L241.71,2.44c.34-.48.38-1.07.1-1.6-.27-.53-.77-.84-1.37-.84h-4.24c-3.01,0-5.62,1.36-7.36,3.82l-31.68,45.03c-1.74,2.48-4.36,6.02-7.39,6.02s-5.62-3.55-7.36-6.03L150.92,3.84c-1.74-2.48-4.34-3.84-7.37-3.84H50.92c-11.81,0-22.7,4.06-31.36,10.85h104.91l15.25-.04Z" style="fill: #0e181a;"/>
        <path d="M134.39,34.06c-1.54-2.31-3.92-3.59-6.7-3.59h-4.62v62.91c0,5.13,4.18,9.31,9.31,9.31h5.35c5.12,0,9.31-4.18,9.31-9.31v-37.92c0-1.65-.44-3.09-1.35-4.48l-11.3-16.91Z" style="fill: #0e181a;"/>
      </g>
    </g>
  </g>
  <g>
    <g>
      <g>
        <path d="M8.17,184.43c-.93-.44-2.04-.66-3.34-.66H0v17.53h2.58v-6.25h2.56c1.08,0,2-.17,2.75-.49.76-.33,1.36-.77,1.82-1.33.46-.56.79-1.17,1-1.85.21-.68.31-1.36.31-2.05,0-1.17-.25-2.17-.74-2.99-.49-.82-1.2-1.45-2.12-1.9ZM8.32,190.34c-.1.36-.28.71-.53,1.05-.25.34-.59.62-1.03.83-.43.22-.97.33-1.62.33h-2.56v-6.3h2.66c.63,0,1.15.1,1.57.3.42.2.75.46.99.77.24.31.41.65.52,1.01.1.36.16.7.16,1.03,0,.29-.05.62-.16.98Z" style="fill: #0e181a;"/>
        <path d="M18.76,183.07l-7.7,18.23h2.54l1.78-4.35h6.57l1.71,4.35h2.95l-7.7-18.23h-.14ZM16.28,194.73l2.44-5.95,2.35,5.95h-4.78Z" style="fill: #0e181a;"/>
        <path d="M39.54,193.2c.47-.55.8-1.16,1.01-1.83.21-.68.31-1.36.31-2.05,0-.9-.16-1.69-.47-2.38-.31-.68-.75-1.26-1.3-1.73-.56-.47-1.22-.82-2-1.07-.78-.25-1.63-.37-2.55-.37h-4.8v17.53h2.58v-6.28h2.56c.15,0,.28-.01.42-.02l4.05,6.29h2.99l-4.34-6.92c.62-.31,1.13-.7,1.54-1.17ZM32.32,186.25h2.66c.61,0,1.13.11,1.55.31.42.21.75.47,1,.8.25.32.43.66.53,1.01.1.35.16.69.16,1.01s-.05.69-.16,1.05c-.1.36-.28.7-.53,1.01-.25.31-.6.58-1.04.78-.44.21-.99.31-1.65.31h-2.51v-6.3Z" style="fill: #0e181a;"/>
        <polygon points="44.25 186.25 48.74 186.25 48.74 201.29 51.32 201.29 51.32 186.25 55.93 186.25 55.93 183.77 44.25 183.77 44.25 186.25" style="fill: #0e181a;"/>
        <path d="M81.43,186.25c-.84-.84-1.79-1.49-2.87-1.97-1.08-.47-2.23-.71-3.45-.71s-2.4.24-3.48.71c-1.08.47-2.03,1.13-2.85,1.97-.82.84-1.46,1.79-1.92,2.87s-.69,2.22-.69,3.43.23,2.43.69,3.51c.46,1.09,1.1,2.04,1.92,2.85.82.81,1.77,1.44,2.85,1.89,1.08.45,2.24.68,3.48.68s2.38-.23,3.46-.69c1.09-.46,2.04-1.1,2.87-1.92.83-.82,1.48-1.77,1.94-2.85.47-1.08.7-2.24.7-3.48s-.23-2.35-.7-3.43c-.47-1.08-1.12-2.04-1.96-2.87ZM80.94,195.08c-.32.78-.77,1.46-1.34,2.05-.57.59-1.23,1.05-1.99,1.38-.76.33-1.57.49-2.44.49s-1.71-.16-2.47-.49c-.76-.33-1.44-.79-2.02-1.38-.58-.59-1.03-1.27-1.36-2.05-.33-.78-.49-1.62-.49-2.52s.16-1.72.47-2.51c.31-.79.76-1.48,1.34-2.08.58-.6,1.25-1.06,2-1.4.76-.34,1.58-.51,2.49-.51s1.69.17,2.45.51c.76.34,1.43.81,2,1.4.57.6,1.02,1.28,1.35,2.06.33.78.49,1.62.49,2.52s-.16,1.74-.48,2.52Z" style="fill: #0e181a;"/>
        <polygon points="98.42 186.25 98.42 183.77 87.92 183.77 87.92 201.29 90.5 201.29 90.5 193.98 97.43 193.98 97.43 191.52 90.5 191.52 90.5 186.25 98.42 186.25" style="fill: #0e181a;"/>
      </g>
      <rect y="208.52" width="389.16" height="5.73" style="fill: #0e181a;"/>
      <g>
        <path d="M128.88,183.94h3.42v17.36h-3.42v-17.36Z" style="fill: #0e181a;"/>
        <path d="M150.86,199.55c-.2.22-.53.44-.97.67-.44.23-.95.44-1.52.63-.57.19-1.16.34-1.76.46-.6.12-1.16.18-1.7.18-1.41,0-2.69-.21-3.82-.63-1.13-.42-2.1-1-2.9-1.74s-1.42-1.63-1.84-2.65-.64-2.14-.64-3.35c0-1.59.24-2.97.72-4.14.48-1.17,1.13-2.15,1.96-2.92.82-.78,1.78-1.36,2.85-1.73,1.08-.38,2.21-.57,3.39-.57,1.12,0,2.14.12,3.07.37.93.24,1.71.55,2.36.91l-1.11,3.18c-.28-.16-.66-.31-1.13-.47s-.95-.29-1.44-.39c-.49-.1-.92-.15-1.3-.15-.94,0-1.78.12-2.5.35-.72.24-1.33.59-1.83,1.06-.5.47-.87,1.06-1.12,1.76-.25.7-.38,1.51-.38,2.44,0,.82.14,1.55.42,2.21.28.65.68,1.21,1.19,1.66s1.12.8,1.82,1.04c.7.24,1.47.35,2.32.35.49,0,.94-.04,1.34-.11.41-.07.76-.18,1.04-.34v-2.1h-3v-3.3h6.46v7.34Z" style="fill: #0e181a;"/>
        <path d="M154.76,183.94h3.42v17.36h-3.42v-17.36Z" style="fill: #0e181a;"/>
        <path d="M161.48,183.94h11.7v3.3h-4.22v14.06h-3.42v-14.06h-4.06v-3.3Z" style="fill: #0e181a;"/>
        <path d="M185,201.3h3.96l-7.83-18.04h-.19l-7.83,18.04h3.37l1.41-3.4h5.76l1.34,3.4ZM179.09,195.02l1.76-4.23,1.67,4.23h-3.43Z" style="fill: #0e181a;"/>
        <path d="M191.48,183.94h3.42v14.06h8.16v3.3h-11.58v-17.36Z" style="fill: #0e181a;"/>
        <path d="M124.7,189.69c-.34-1.07-.89-2.04-1.64-2.9-.75-.86-1.73-1.56-2.96-2.08-1.23-.52-2.71-.78-4.46-.78h-5.19v3.28h0s3.17,0,3.17,0h0s.25,0,.25,0h2.78c.39,0,.87.08,1.44.22.57.15,1.12.42,1.66.81.54.39,1,.95,1.37,1.66.37.72.55,1.64.55,2.77,0,.87-.14,1.63-.41,2.3-.28.67-.67,1.22-1.18,1.66-.51.44-1.12.77-1.83,1-.71.23-1.49.34-2.36.34h-2.28v-6.5h-3.17v9.81h6.04c1.18,0,2.3-.19,3.35-.58,1.05-.39,1.98-.94,2.78-1.68.8-.73,1.44-1.61,1.9-2.64.46-1.03.7-2.19.7-3.48,0-1.09-.17-2.16-.52-3.23Z" style="fill: #0e181a;"/>
      </g>
      <g>
        <path d="M225.54,192.29c0-1.19.23-2.33.68-3.4.46-1.07,1.09-2.02,1.9-2.84.81-.83,1.75-1.47,2.82-1.95,1.07-.47,2.22-.71,3.44-.71s2.35.24,3.42.71c1.07.47,2.02,1.12,2.84,1.95s1.47,1.77,1.93,2.84c.46,1.07.7,2.2.7,3.4s-.23,2.37-.7,3.44c-.46,1.07-1.11,2.01-1.93,2.82s-1.77,1.44-2.84,1.9-2.21.68-3.42.68-2.37-.23-3.44-.68c-1.07-.46-2.01-1.09-2.82-1.9-.81-.81-1.44-1.75-1.9-2.82s-.68-2.22-.68-3.44ZM229.08,192.29c0,.77.14,1.49.41,2.16.27.67.66,1.26,1.16,1.77.5.51,1.07.91,1.72,1.19.65.28,1.36.43,2.13.43s1.43-.14,2.06-.43c.64-.28,1.19-.68,1.66-1.19.47-.51.84-1.1,1.11-1.77.27-.67.4-1.39.4-2.16s-.14-1.52-.41-2.19c-.27-.68-.65-1.27-1.13-1.78-.48-.51-1.04-.91-1.69-1.19-.64-.28-1.34-.43-2.1-.43s-1.45.14-2.1.43c-.64.28-1.21.68-1.7,1.19-.49.51-.87,1.1-1.13,1.78-.27.68-.4,1.41-.4,2.19Z" style="fill: #0e181a;"/>
        <path d="M249.76,194.53c0,.55.17,1.08.49,1.58.33.5.77.91,1.31,1.23.54.32,1.14.47,1.78.47.71,0,1.34-.16,1.89-.47.55-.31.99-.72,1.31-1.23.32-.5.48-1.03.48-1.58v-10.94h3.37v11.02c0,1.27-.32,2.4-.94,3.38-.63.98-1.48,1.75-2.55,2.31-1.07.56-2.26.84-3.56.84s-2.47-.28-3.53-.84c-1.06-.56-1.91-1.33-2.54-2.31-.63-.98-.94-2.11-.94-3.38v-11.02h3.42v10.94Z" style="fill: #0e181a;"/>
        <polygon points="276.72 183.58 276.79 194.04 264.67 182.9 264.53 182.9 264.53 200.94 267.99 200.94 267.93 190.68 280.07 201.65 280.17 201.65 280.17 183.58 276.72 183.58" style="fill: #0e181a;"/>
        <path d="M284.65,200.94v-17.36h5.19c1.75,0,3.23.26,4.46.78,1.23.52,2.21,1.21,2.96,2.08.75.87,1.29,1.83,1.64,2.9.35,1.07.52,2.15.52,3.23,0,1.29-.23,2.45-.7,3.48-.46,1.03-1.1,1.91-1.9,2.64-.8.73-1.73,1.29-2.78,1.68-1.05.39-2.17.58-3.35.58h-6.04ZM288.07,197.64h2.03c.87,0,1.65-.11,2.36-.34.71-.23,1.32-.56,1.83-1,.51-.44.9-.99,1.18-1.66.28-.67.41-1.43.41-2.3,0-1.13-.18-2.06-.55-2.77-.37-.72-.83-1.27-1.37-1.66-.54-.39-1.1-.66-1.66-.81-.57-.15-1.05-.22-1.44-.22h-2.78v10.78Z" style="fill: #0e181a;"/>
        <path d="M311.58,200.94h3.96l-7.83-18.04h-.19l-7.83,18.04h3.37l1.41-3.4h5.76l1.34,3.4ZM305.68,194.67l1.76-4.23,1.67,4.23h-3.43Z" style="fill: #0e181a;"/>
        <path d="M315.48,183.58h11.7v3.3h-4.22v14.06h-3.42v-14.06h-4.06v-3.3Z" style="fill: #0e181a;"/>
        <path d="M330.48,183.58h3.42v17.36h-3.42v-17.36Z" style="fill: #0e181a;"/>
        <path d="M337.32,192.29c0-1.19.23-2.33.68-3.4.46-1.07,1.09-2.02,1.9-2.84s1.75-1.47,2.82-1.95c1.07-.47,2.22-.71,3.44-.71s2.35.24,3.42.71c1.07.47,2.02,1.12,2.84,1.95s1.47,1.77,1.93,2.84c.46,1.07.7,2.2.7,3.4s-.23,2.37-.7,3.44c-.46,1.07-1.11,2.01-1.93,2.82s-1.77,1.44-2.84,1.9-2.21.68-3.42.68-2.37-.23-3.44-.68c-1.07-.46-2.01-1.09-2.82-1.9s-1.44-1.75-1.9-2.82-.68-2.22-.68-3.44ZM340.86,192.29c0,.77.14,1.49.41,2.16.28.67.66,1.26,1.16,1.77.49.51,1.07.91,1.72,1.19.65.28,1.36.43,2.13.43s1.43-.14,2.06-.43c.64-.28,1.19-.68,1.66-1.19.47-.51.84-1.1,1.11-1.77.27-.67.4-1.39.4-2.16s-.14-1.52-.41-2.19c-.28-.68-.65-1.27-1.13-1.78s-1.04-.91-1.69-1.19c-.64-.28-1.34-.43-2.1-.43s-1.45.14-2.1.43c-.65.28-1.21.68-1.7,1.19s-.87,1.1-1.13,1.78c-.27.68-.4,1.41-.4,2.19Z" style="fill: #0e181a;"/>
        <polygon points="370.67 183.58 370.74 194.04 358.62 182.9 358.48 182.9 358.48 200.94 361.94 200.94 361.88 190.68 374.02 201.65 374.11 201.65 374.11 183.58 370.67 183.58" style="fill: #0e181a;"/>
        <path d="M387.87,187.78c-.66-.36-1.33-.66-2.02-.9-.68-.24-1.33-.35-1.92-.35-.74,0-1.32.15-1.75.45s-.64.75-.64,1.34c0,.41.16.77.48,1.1.32.32.74.61,1.25.86.51.25,1.04.48,1.59.68.5.19,1,.41,1.5.67.5.26.94.58,1.33.97.39.39.71.87.94,1.44.24.57.35,1.28.35,2.11,0,.88-.23,1.7-.68,2.45-.46.76-1.12,1.37-2,1.83-.88.46-1.97.7-3.26.7-.66,0-1.33-.07-2.02-.2-.68-.13-1.36-.34-2.02-.61-.66-.27-1.3-.62-1.91-1.05l1.51-2.67c.41.3.85.56,1.33.79.48.23.96.41,1.45.53.49.13.94.19,1.34.19s.82-.06,1.24-.18c.42-.12.76-.32,1.04-.6.27-.28.41-.68.41-1.18,0-.35-.11-.66-.34-.94-.23-.28-.53-.54-.92-.78-.38-.24-.81-.44-1.26-.61-.53-.2-1.09-.44-1.65-.71-.57-.27-1.1-.59-1.59-.98-.49-.39-.9-.86-1.2-1.44-.31-.57-.46-1.28-.46-2.11,0-1.01.22-1.88.67-2.62s1.08-1.32,1.9-1.76,1.76-.67,2.83-.72c1.4,0,2.54.16,3.41.49.87.33,1.65.72,2.35,1.18l-1.3,2.62Z" style="fill: #0e181a;"/>
        <g>
          <polygon points="224.68 183.58 212.45 183.58 212.49 187.16 223.5 187.16 224.68 183.58" style="fill: #0e181a;"/>
          <polygon points="222.36 191.14 215.87 191.14 212.45 191.14 212.45 200.94 215.87 200.94 215.87 194.44 221.27 194.44 222.36 191.14" style="fill: #0e181a;"/>
        </g>
      </g>
    </g>
    <g>
      <path d="M394.01,184.1c-2.25,0-4.07-1.83-4.07-4.07s1.83-4.07,4.07-4.07,4.07,1.83,4.07,4.07-1.83,4.07-4.07,4.07ZM394.01,176.61c-1.88,0-3.42,1.53-3.42,3.42s1.53,3.42,3.42,3.42,3.42-1.53,3.42-3.42-1.53-3.42-3.42-3.42Z" style="fill: #0e181a;"/>
      <path d="M393.36,181.9h-.56v-4h1.28c.19,0,.37.02.55.06s.32.1.45.19c.13.09.23.2.31.34.08.14.11.31.11.52,0,.29-.09.53-.27.71s-.41.3-.7.34l1.12,1.83h-.68l-1.02-1.78h-.6v1.78ZM393.36,179.65h.64c.13,0,.25-.01.37-.03.11-.02.21-.06.3-.11.08-.05.15-.12.2-.2.05-.08.07-.18.07-.3s-.02-.22-.07-.3c-.05-.08-.11-.15-.19-.19-.08-.05-.18-.08-.29-.1-.11-.02-.22-.03-.34-.03h-.68v1.28Z" style="fill: #0e181a;"/>
    </g>
  </g>
</svg>