<svg xmlns="http://www.w3.org/2000/svg" viewBox="0 0 1000 430.56"><defs><style>.cls-1{fill:#fff;}</style></defs><g id="CMS_White_no_SM" data-name="CMS White no SM"><path class="cls-1" d="M48.23,407a90.05,90.05,0,0,1-17.76,2c-5.25,0-9.49-.71-12.72-2.16a15.87,15.87,0,0,1-7.48-6.72,31,31,0,0,1-3.65-10.46,89.85,89.85,0,0,1-1-14.73,91.65,91.65,0,0,1,1-14.82,31.69,31.69,0,0,1,3.65-10.61,15.66,15.66,0,0,1,7.44-6.72q4.78-2.12,12.47-2.11a91.94,91.94,0,0,1,18,2.11L47.94,349a99.91,99.91,0,0,0-17.28-1.73q-10.56,0-14,6.29T13.29,375a93.94,93.94,0,0,0,.63,12.19,26.7,26.7,0,0,0,2.44,8.3,10.85,10.85,0,0,0,5.33,5.28c2.33,1.05,5.76,1.58,10.27,1.58a87.67,87.67,0,0,0,16-1.73Z"/><path class="cls-1" d="M59.38,408V341.59H72.72l18.81,56.14,18.81-56.14h13.34V408h-7.39V349.46H115L95.65,405.6H87.4L68.11,349.46H66.77V408Z"/><path class="cls-1" d="M157,347.06q-14.4,0-14.4,10.84c0,4,1.11,6.81,3.31,8.31s6.69,3,13.44,4.51,11.53,3.45,14.35,5.85,4.22,6.35,4.22,11.85q0,20.44-21.21,20.45a119.9,119.9,0,0,1-17.56-1.63l-3.46-.48.77-6.15a162.59,162.59,0,0,0,19.87,1.73q14.2,0,14.2-13.34,0-5.37-3.12-7.73t-11.66-4q-11.22-2.39-15.93-6.19t-4.7-12.71q0-17.85,21.4-17.85A119.15,119.15,0,0,1,173.35,342l3.27.48-.67,6.24A179.57,179.57,0,0,0,157,347.06Z"/><path class="cls-1" d="M211.84,408V341.59h7.39V408Z"/><path class="cls-1" d="M229,348.21v-6.62h48v6.62H256.69V408H249.4V348.21Z"/><path class="cls-1" d="M277.26,385v-6.72h29.08V385Z"/><path class="cls-1" d="M361.72,407A90.05,90.05,0,0,1,344,409c-5.25,0-9.48-.71-12.71-2.16a15.85,15.85,0,0,1-7.49-6.72,31.22,31.22,0,0,1-3.65-10.46,90,90,0,0,1-1-14.73,91.78,91.78,0,0,1,1-14.82,31.91,31.91,0,0,1,3.65-10.61,15.66,15.66,0,0,1,7.44-6.72q4.8-2.12,12.47-2.11a91.94,91.94,0,0,1,18.05,2.11l-.29,6.24a99.81,99.81,0,0,0-17.28-1.73q-10.56,0-14,6.29T326.78,375a93.94,93.94,0,0,0,.63,12.19,26.7,26.7,0,0,0,2.44,8.3,10.85,10.85,0,0,0,5.33,5.28q3.51,1.58,10.27,1.58a87.67,87.67,0,0,0,16-1.73Z"/><path class="cls-1" d="M369.62,383.92q0-13.16,4.7-19t15.88-5.85q11.18,0,15.84,5.85t4.65,19q0,13.14-4.41,19.09T390.15,409Q378.45,409,374,403T369.62,383.92Zm7.39-.15q0,10.51,2.54,14.73t10.65,4.23q8.12,0,10.61-4.18t2.49-14.73q0-10.56-2.78-14.54t-10.32-4q-7.53,0-10.36,4T377,383.77Z"/><path class="cls-1" d="M429,408h-7.19V360h7.1v3.35a30.64,30.64,0,0,1,14.87-4.31q9.6,0,12.91,5.18T460,382.67V408h-7.1V382.86c0-6.65-.65-11.22-2-13.68s-4.12-3.69-8.4-3.69a25,25,0,0,0-6.48.91,33.07,33.07,0,0,0-5.23,1.77L429,369Z"/><path class="cls-1" d="M487.4,365.49q-10.45,0-10.46,7.29a5,5,0,0,0,2.4,4.75q2.4,1.39,10.94,2.88t12.09,4.18q3.56,2.69,3.56,10.07t-4.76,10.85c-3.16,2.3-7.79,3.45-13.86,3.45a87.54,87.54,0,0,1-14-1.34l-2.87-.48.38-6.24a121.87,121.87,0,0,0,16.51,1.63q5.56,0,8.49-1.77t2.93-5.95c0-2.79-.83-4.67-2.5-5.67s-5.31-1.93-10.94-2.83-9.63-2.2-12-3.93-3.55-4.93-3.55-9.6,1.65-8.12,4.95-10.36A21.42,21.42,0,0,1,487,359.06a101.57,101.57,0,0,1,14.68,1.34l2.69.48L504.2,367A125.3,125.3,0,0,0,487.4,365.49Z"/><path class="cls-1" d="M546.09,360h7.2v48h-7.2v-3.35a27.55,27.55,0,0,1-14.2,4.31q-9.79,0-13-5.08t-3.21-18.81V360h7.19v25q0,10.47,1.83,14t8.25,3.55a23.71,23.71,0,0,0,6.43-.91,29.94,29.94,0,0,0,5-1.77l1.73-.87Z"/><path class="cls-1" d="M566.4,408V339.09h7.2V408Z"/><path class="cls-1" d="M612.37,366.26H597.11v22.93q0,8.26,1.2,10.85t5.71,2.59l8.54-.58L613,408a65,65,0,0,1-9.79,1.06q-7.49,0-10.37-3.65T590,391.5V366.26h-6.82V360H590V345.33h7.1V360h15.26Z"/><path class="cls-1" d="M621.7,349.17v-8.35h7.19v8.35Zm0,58.83V360h7.19v48Z"/><path class="cls-1" d="M648.86,408h-7.19V360h7.1v3.35a30.64,30.64,0,0,1,14.87-4.31q9.6,0,12.91,5.18t3.31,18.43V408h-7.1V382.86c0-6.65-.65-11.22-2-13.68s-4.12-3.69-8.4-3.69a25,25,0,0,0-6.48.91,33.07,33.07,0,0,0-5.23,1.77l-1.83.87Z"/><path class="cls-1" d="M710.33,430.56q-11.52,0-16.08-3.12t-4.56-11.38a10.86,10.86,0,0,1,1.73-6.38,27.1,27.1,0,0,1,5.85-5.52q-2.68-1.82-2.68-6.62c0-1.08.79-3.1,2.39-6l.87-1.54q-7.59-3.45-7.58-14.49,0-16.41,17.94-16.41a36.11,36.11,0,0,1,8.55,1l1.43.28,14.21-.38v6.15l-9.12-.2q3.16,3.17,3.17,9.6,0,9-4.46,12.62t-14.06,3.6a26.07,26.07,0,0,1-4.71-.39c-1.15,2.82-1.72,4.64-1.72,5.48,0,2,.6,3.21,1.82,3.69s4.89.72,11,.72,10.55,1,13.24,2.88,4,5.66,4,11.23Q731.63,430.56,710.33,430.56Zm-13.54-15.07c0,3.39,1,5.74,2.83,7.05s5.38,2,10.47,2,8.73-.7,10.94-2.11,3.31-3.76,3.31-7.06-.8-5.42-2.4-6.38-4.74-1.44-9.41-1.44l-10.36-.47a16.81,16.81,0,0,0-4.27,4A8.07,8.07,0,0,0,696.79,415.49Zm.68-40c0,3.77.84,6.46,2.54,8.06s4.49,2.4,8.4,2.4,6.68-.8,8.35-2.4,2.49-4.3,2.49-8.11-.83-6.51-2.49-8.11-4.45-2.4-8.35-2.4-6.71.82-8.4,2.45S697.47,371.69,697.47,375.47Z"/><path class="cls-1" d="M789.79,380.65V374h18.33v32.63a116.33,116.33,0,0,1-21.59,2.3q-14.5,0-20.11-8.35t-5.61-25.77q0-17.41,5.61-25.81t19.92-8.4a94.38,94.38,0,0,1,18.52,1.92l3.26.58-.29,6.14a125.26,125.26,0,0,0-20.63-2q-11,0-14.88,6.38t-3.84,21.21q0,14.84,3.84,21.22t14.78,6.38a72.48,72.48,0,0,0,13.73-1.35V380.65Z"/><path class="cls-1" d="M828.25,408h-7.2V360h7.1v3.35a27.18,27.18,0,0,1,14-4.31q8.93,0,12.48,4.89a35.23,35.23,0,0,1,8.2-3.4,32,32,0,0,1,8.88-1.49q9.6,0,12.91,5.13t3.31,18.48V408h-7.2V382.86c0-6.65-.64-11.22-1.92-13.68s-4-3.69-8.15-3.69a24.81,24.81,0,0,0-6.53.91,33.27,33.27,0,0,0-5.18,1.77l-1.83.87q1.26,3.16,1.25,14V408h-7.2V383.24q0-10.37-1.87-14.06t-8.2-3.69a22.89,22.89,0,0,0-6.29.91,30.47,30.47,0,0,0-4.94,1.77l-1.63.87Z"/><path class="cls-1" d="M921.65,359.06q9.69,0,13.58,5.51t3.89,19.35q0,13.81-4.85,19.43T916.47,409q-4,0-13.35-.76l-2.68-.29V339.09h7.1v23.33A33.62,33.62,0,0,1,921.65,359.06Zm-5.28,43.47q9.4,0,12.43-4.27t3-14.44q0-10.17-2.4-14.26t-8.54-4.07a33.48,33.48,0,0,0-11.42,2.11l-1.92.67v33.78Q913.78,402.53,916.37,402.53Z"/><path class="cls-1" d="M992.71,408V378H958.92v30h-7.39V341.59h7.39v29.75h33.79V341.59H1000V408Z"/><path class="cls-1" d="M644.94,227.29H988.6c7.66-13,11.4-28,11.4-44.79,0-22.17-6.67-41.15-20-56.8-14.47-16.34-32.62-24.55-54.6-24.55H759.23c-28.62,0-26.72-39.55,0-39.55H964.56a23.19,23.19,0,0,0,23.13-23.12V23.12A23.2,23.2,0,0,0,964.56,0H759.74q-32.82,0-53.87,24.15c-14,16.05-21.07,35.26-21.07,57.46s6.85,41.09,20.52,56.48q21.6,24.67,54.42,24.66H925.57c21.29,0,21.36,39.51,0,39.51H659.14V15.36a13.33,13.33,0,0,0-7.78-12.28,13.83,13.83,0,0,0-14.88,2.18,23.44,23.44,0,0,0-4.2,4.64L507.71,188c-4.47,6.41-11.17,15.53-19,15.53s-14.45-9.12-18.92-15.49L372.45,49a22.41,22.41,0,0,0-18.95-9.9H37.67A130.48,130.48,0,0,0,0,130.83V133c0,72,58.87,130.83,130.83,130.83H267.42a23.12,23.12,0,0,0,23.12-23.12V225.38a23.12,23.12,0,0,0-23.12-23.12H131.09c-19.91,0-36.93-7.43-50.76-22.07a69.77,69.77,0,0,1-18.65-48v-1.35a69.56,69.56,0,0,1,69.45-69.34q94.32.06,188.69.07v0h20.31a20.12,20.12,0,0,1,17.22,9.27l43.13,64.68,68.28,97.26a23.14,23.14,0,0,0,37.86,0l90.59-129.1V240.74a23.12,23.12,0,0,0,23.12,23.12H925.57c22.22,0,40.74-8.32,55.09-25.34v0H636.33a13,13,0,0,1-13-13V47.13a23.18,23.18,0,0,1,4.17-13.25l4.15-6a1.58,1.58,0,0,1,2.9.91V216.93A10.35,10.35,0,0,0,644.94,227.29Z"/><path class="cls-1" d="M359,27.78a22.6,22.6,0,0,1,19,9.86c20.81,29.68,62.59,89.31,91.73,130.87,4.47,6.37,11.11,15.53,18.91,15.53s14.51-9.16,19-15.53L621.1,6.27a3.81,3.81,0,0,0,.26-4.11A3.87,3.87,0,0,0,617.84,0H607a22.55,22.55,0,0,0-18.91,9.82l-81.4,115.7c-4.47,6.37-11.21,15.45-19,15.45s-14.44-9.11-18.91-15.49L387.8,9.86A22.47,22.47,0,0,0,368.86,0h-238A130.18,130.18,0,0,0,50.25,27.89H319.82Z"/><path class="cls-1" d="M345.33,87.51a20.17,20.17,0,0,0-17.22-9.23H316.23V239.93a24,24,0,0,0,23.93,23.93h13.75a24,24,0,0,0,23.93-23.93V142.48a20.16,20.16,0,0,0-3.48-11.5Z"/></g></svg>