<?xml version="1.0" encoding="UTF-8"?>
<svg id="bell-dark" xmlns="http://www.w3.org/2000/svg" viewBox="0 0 398.09 200.28">
  <path d="M5.56,103.15h110.62c-4.75-3.21-8.99-7.1-12.59-11.53H5.56c-3.06,0-5.56,2.5-5.56,5.56v.4c0,3.06,2.5,5.56,5.56,5.56M388.03,97.59v-.4c0-3.06-2.5-5.56-5.56-5.56h-188.69c-3.61,4.43-7.85,8.32-12.59,11.53h201.28c3.06,0,5.56-2.5,5.56-5.56" style="fill: #0e181a;"/>
  <path d="M76.09,65.03c0,1.1-.42,2.06-1.27,2.87-.85.81-1.82,1.22-2.92,1.22H10.61v-8.17h61.29c1.1,0,2.08.38,2.92,1.16.85.78,1.27,1.75,1.27,2.93M76.09,46.36c0,1.18-.4,2.14-1.21,2.87-.81.74-1.76,1.1-2.87,1.1H10.61v-8.17h61.29c1.1,0,2.08.43,2.92,1.27s1.27,1.82,1.27,2.93M85.43,60c-.63-1.58-1.45-3-2.48-4.25,1.03-1.25,1.86-2.67,2.48-4.25.63-1.58.94-3.29.94-5.13,0-2.06-.39-3.99-1.16-5.8-.77-1.81-1.84-3.37-3.2-4.7-1.37-1.32-2.95-2.38-4.75-3.14-1.8-.77-3.74-1.16-5.8-1.16H5.3c-1.47,0-2.73.51-3.76,1.55-1.03,1.03-1.55,2.28-1.55,3.75v37.55c0,1.47.51,2.72,1.55,3.76,1.03,1.03,2.28,1.54,3.76,1.54h66.15c2.06,0,4-.39,5.8-1.16,1.8-.77,3.38-1.82,4.75-3.15,1.36-1.32,2.43-2.87,3.2-4.63.77-1.77,1.16-3.68,1.16-5.74,0-1.77-.31-3.44-.94-5.03M184.69,59.39c-1.03,1.03-2.28,1.55-3.75,1.55h-55c-1.48,0-2.73-.52-3.76-1.55-1.03-1.03-1.55-2.28-1.55-3.75s.51-2.72,1.55-3.76c1.03-1.03,2.28-1.55,3.76-1.55h55c1.47,0,2.72.52,3.75,1.55,1.03,1.04,1.55,2.28,1.55,3.76s-.52,2.72-1.55,3.75M189.33,78.17c-1.03,1.03-2.28,1.54-3.75,1.54h-64.39c-3.02,0-5.71-.73-8.06-2.21-2.36-1.47-4.36-3.37-6.02-5.69-1.66-2.32-2.93-4.91-3.81-7.79-.88-2.87-1.32-5.67-1.32-8.39s.46-5.62,1.38-8.45c.92-2.83,2.27-5.41,4.03-7.73,1.76-2.32,3.9-4.22,6.41-5.69,2.5-1.47,5.34-2.21,8.5-2.21h63.29c1.47,0,2.72.51,3.75,1.55,1.03,1.03,1.55,2.28,1.55,3.75s-.52,2.73-1.55,3.76c-1.03,1.03-2.28,1.55-3.75,1.55h-60.86c-2.58,0-4.66.46-6.24,1.38-1.58.92-2.84,2.04-3.75,3.37-.92,1.32-1.55,2.78-1.88,4.36-.33,1.58-.5,3.03-.5,4.36s.16,2.78.5,4.36c.33,1.59.96,3.04,1.88,4.36.92,1.33,2.17,2.45,3.75,3.37,1.58.92,3.66,1.38,6.24,1.38h60.86c1.47,0,2.72.51,3.75,1.54,1.03,1.04,1.55,2.28,1.55,3.76s-.52,2.72-1.55,3.76M202.76,54.94c0-30.34-24.6-54.94-54.94-54.94s-54.94,24.6-54.94,54.94,24.6,54.94,54.94,54.94,54.94-24.59,54.94-54.94M296.47,78.17c1.03-1.03,1.55-2.28,1.55-3.76s-.52-2.72-1.55-3.76c-1.03-1.03-2.28-1.54-3.76-1.54h-66.26c-1.1,0-2.08-.41-2.93-1.22-.85-.8-1.27-1.76-1.27-2.87v-28.17c0-1.47-.53-2.72-1.6-3.75s-2.3-1.55-3.7-1.55c-1.47,0-2.72.51-3.75,1.55-1.03,1.03-1.55,2.28-1.55,3.75v28.17c0,2.06.41,3.97,1.22,5.74.8,1.76,1.89,3.31,3.25,4.63,1.36,1.33,2.97,2.38,4.8,3.15,1.84.77,3.79,1.16,5.86,1.16h65.93c1.47,0,2.72-.51,3.76-1.54M387.06,74.41c0-1.47-.52-2.72-1.55-3.76-1.03-1.03-2.28-1.54-3.76-1.54h-66.26c-1.1,0-2.08-.41-2.92-1.22-.85-.8-1.27-1.76-1.27-2.87v-28.17c0-1.47-.54-2.72-1.6-3.75-1.07-1.03-2.31-1.55-3.7-1.55-1.47,0-2.72.51-3.76,1.55-1.03,1.03-1.54,2.28-1.54,3.75v28.17c0,2.06.4,3.97,1.21,5.74.81,1.76,1.9,3.31,3.26,4.63,1.36,1.33,2.96,2.38,4.8,3.15,1.84.77,3.79,1.16,5.85,1.16h65.93c1.47,0,2.73-.51,3.76-1.54s1.55-2.28,1.55-3.76" style="fill: #0e181a;"/>
  <g>
    <path d="M13.79,143.06c-.94.5-2.73.94-4.99.94-4.5,0-8.8-2.87-8.8-9.46,0-5.51,3.56-9.71,9.4-9.71,2.37,0,3.75.52,4.33.83l-.44,1.1c-.94-.47-2.29-.8-3.86-.8-5.02,0-8.08,3.25-8.08,8.6,0,5.05,2.9,8.3,7.86,8.3,1.6,0,3.14-.33,4.19-.86l.39,1.05Z" style="fill: #0e181a;"/>
    <path d="M38.68,134.24c0,6.56-4,9.79-8.3,9.79-4.58,0-8.11-3.61-8.11-9.4,0-6.09,3.67-9.79,8.33-9.79s8.08,3.64,8.08,9.4ZM23.63,134.57c0,4.19,2.43,8.35,6.84,8.35s6.87-4,6.87-8.6c0-3.92-2.15-8.38-6.81-8.38s-6.89,4.3-6.89,8.63Z" style="fill: #0e181a;"/>
    <path d="M64.66,134.9c-.19-2.79-.41-6.2-.39-8.22h-.08c-.66,2.01-1.43,4.16-2.48,6.92l-3.92,10.12h-.91l-3.67-9.87c-1.05-2.9-1.85-5.13-2.4-7.17h-.08c-.03,2.18-.17,5.4-.39,8.49l-.58,8.55h-1.3l1.35-18.58h1.52l4,10.7c.85,2.37,1.52,4.25,2.04,6.04h.06c.5-1.71,1.16-3.53,2.1-6.01l4.14-10.73h1.57l1.27,18.58h-1.3l-.55-8.82Z" style="fill: #0e181a;"/>
    <path d="M77.45,125.36c1.08-.22,2.4-.36,3.97-.36,2.21,0,3.89.55,4.91,1.57.88.85,1.43,2.07,1.43,3.64s-.47,2.79-1.3,3.7c-1.19,1.38-3.2,2.09-5.46,2.09-.83,0-1.6-.03-2.26-.22v7.94h-1.3v-18.36ZM78.75,134.63c.66.19,1.46.28,2.37.28,3.31,0,5.32-1.63,5.32-4.58s-2.12-4.22-5.07-4.22c-1.21,0-2.12.11-2.62.22v8.3Z" style="fill: #0e181a;"/>
    <path d="M99.56,125.14v11.22c0,4.72,2.21,6.54,4.96,6.54,3.06,0,5.18-1.99,5.18-6.54v-11.22h1.32v11.08c0,5.71-3.09,7.8-6.59,7.8-3.25,0-6.18-1.9-6.18-7.58v-11.3h1.3Z" style="fill: #0e181a;"/>
    <path d="M126.03,126.24h-6.04v-1.1h13.43v1.1h-6.07v17.48h-1.32v-17.48Z" style="fill: #0e181a;"/>
    <path d="M151.09,134.49h-7.45v8.13h8.33v1.1h-9.62v-18.58h9.18v1.1h-7.89v7.14h7.45v1.1Z" style="fill: #0e181a;"/>
    <path d="M162.2,125.39c1.13-.25,2.73-.39,4-.39,2.43,0,3.94.52,5.02,1.54.8.77,1.3,2.01,1.3,3.31,0,2.51-1.49,4.11-3.64,4.85v.06c1.49.47,2.43,1.88,2.87,3.94.63,2.9.99,4.27,1.38,5.02h-1.38c-.28-.55-.69-2.18-1.19-4.52-.55-2.67-1.71-3.89-4.16-4h-2.9v8.52h-1.3v-18.34ZM163.5,134.13h2.95c2.87,0,4.74-1.6,4.74-4.05,0-2.84-2.1-4-5.02-4-1.27,0-2.21.14-2.67.25v7.8Z" style="fill: #0e181a;"/>
    <path d="M188.26,135.57v1.16h-6.56v-1.16h6.56Z" style="fill: #0e181a;"/>
    <path d="M198.35,143.73v-18.58h1.24l7.25,10.97c1.49,2.32,2.56,4.05,3.47,5.85l.05-.03c-.19-2.51-.22-4.63-.22-7.55v-9.24h1.3v18.58h-1.24l-7.09-10.81c-1.38-2.15-2.65-4.11-3.61-6.01l-.05.03c.14,2.29.17,4.3.17,7.39v9.4h-1.27Z" style="fill: #0e181a;"/>
    <path d="M231.69,134.49h-7.45v8.13h8.33v1.1h-9.62v-18.58h9.18v1.1h-7.89v7.14h7.45v1.1Z" style="fill: #0e181a;"/>
    <path d="M246.9,126.24h-6.04v-1.1h13.43v1.1h-6.07v17.48h-1.32v-17.48Z" style="fill: #0e181a;"/>
    <path d="M261.88,142.84l11.19-16.52v-.08h-10.28v-1.1h11.97v.88l-11.22,16.52v.08h11.36v1.1h-13.01v-.88Z" style="fill: #0e181a;"/>
    <path d="M288.1,143.73l-4.88-18.58h1.32l2.7,10.48c.63,2.4,1.19,4.63,1.54,6.37h.08c.3-1.74.96-3.94,1.68-6.37l3.06-10.48h1.27l2.76,10.39c.58,2.26,1.21,4.58,1.49,6.45h.08c.41-2.01.99-4.03,1.68-6.4l3.06-10.45h1.35l-5.57,18.58h-1.27l-2.81-10.7c-.72-2.73-1.16-4.58-1.43-6.31h-.05c-.3,1.74-.8,3.56-1.65,6.29l-3.14,10.73h-1.27Z" style="fill: #0e181a;"/>
    <path d="M323.42,134.49h-7.45v8.13h8.33v1.1h-9.62v-18.58h9.18v1.1h-7.89v7.14h7.45v1.1Z" style="fill: #0e181a;"/>
    <path d="M334.53,125.39c1.13-.25,2.73-.39,4-.39,2.43,0,3.94.52,5.02,1.54.8.77,1.3,2.01,1.3,3.31,0,2.51-1.49,4.11-3.64,4.85v.06c1.49.47,2.43,1.88,2.87,3.94.63,2.9.99,4.27,1.38,5.02h-1.38c-.28-.55-.69-2.18-1.19-4.52-.55-2.67-1.71-3.89-4.16-4h-2.9v8.52h-1.3v-18.34ZM335.82,134.13h2.95c2.87,0,4.74-1.6,4.74-4.05,0-2.84-2.1-4-5.02-4-1.27,0-2.21.14-2.67.25v7.8Z" style="fill: #0e181a;"/>
    <path d="M355.45,125.14h1.3v9.4h.11c.52-.72,1.08-1.35,1.57-1.93l6.59-7.47h1.63l-7.09,7.89,7.75,10.7h-1.6l-7.06-9.79-1.9,2.1v7.69h-1.3v-18.58Z" style="fill: #0e181a;"/>
    <path d="M384.93,134.49h-7.45v8.13h8.33v1.1h-9.62v-18.58h9.18v1.1h-7.89v7.14h7.45v1.1Z" style="fill: #0e181a;"/>
  </g>
  <g>
    <g>
      <g>
        <path d="M8.17,170.45c-.93-.44-2.04-.66-3.34-.66H0v17.53h2.58v-6.25h2.56c1.08,0,2-.17,2.75-.49.76-.33,1.36-.77,1.82-1.33.46-.56.79-1.17,1-1.85.21-.68.31-1.36.31-2.05,0-1.17-.25-2.17-.74-2.99-.49-.82-1.2-1.45-2.12-1.9ZM8.32,176.37c-.1.36-.28.71-.53,1.05-.25.34-.59.62-1.03.83-.43.22-.97.33-1.62.33h-2.56v-6.3h2.66c.63,0,1.15.1,1.57.3.42.2.75.46.99.77.24.31.41.65.52,1.01.1.36.16.7.16,1.03,0,.29-.05.62-.16.98Z" style="fill: #0e181a;"/>
        <path d="M18.76,169.09l-7.7,18.23h2.54l1.78-4.35h6.57l1.71,4.35h2.95l-7.7-18.23h-.14ZM16.28,180.75l2.44-5.95,2.35,5.95h-4.78Z" style="fill: #0e181a;"/>
        <path d="M39.54,179.23c.47-.55.8-1.16,1.01-1.83.21-.68.31-1.36.31-2.05,0-.9-.16-1.69-.47-2.38-.31-.68-.75-1.26-1.3-1.73-.56-.47-1.22-.82-2-1.07-.78-.25-1.63-.37-2.55-.37h-4.8v17.53h2.58v-6.28h2.56c.15,0,.28-.01.42-.02l4.05,6.29h2.99l-4.34-6.92c.62-.31,1.13-.7,1.54-1.17ZM32.32,172.28h2.66c.61,0,1.13.11,1.55.31.42.21.75.47,1,.8.25.32.43.66.53,1.01.1.35.16.69.16,1.01s-.05.69-.16,1.05c-.1.36-.28.7-.53,1.01-.25.31-.6.58-1.04.78-.44.21-.99.31-1.65.31h-2.51v-6.3Z" style="fill: #0e181a;"/>
        <polygon points="44.25 172.28 48.74 172.28 48.74 187.32 51.32 187.32 51.32 172.28 55.93 172.28 55.93 169.79 44.25 169.79 44.25 172.28" style="fill: #0e181a;"/>
        <path d="M81.43,172.28c-.84-.84-1.79-1.49-2.87-1.97-1.08-.47-2.23-.71-3.45-.71s-2.4.24-3.48.71c-1.08.47-2.03,1.13-2.85,1.97-.82.84-1.46,1.79-1.92,2.87s-.69,2.22-.69,3.43.23,2.43.69,3.51c.46,1.09,1.1,2.04,1.92,2.85.82.81,1.77,1.44,2.85,1.89,1.08.45,2.24.68,3.48.68s2.38-.23,3.46-.69c1.09-.46,2.04-1.1,2.87-1.92.83-.82,1.48-1.77,1.94-2.85.47-1.08.7-2.24.7-3.48s-.23-2.35-.7-3.43c-.47-1.08-1.12-2.04-1.96-2.87ZM80.94,181.1c-.32.78-.77,1.46-1.34,2.05-.57.59-1.23,1.05-1.99,1.38-.76.33-1.57.49-2.44.49s-1.71-.16-2.47-.49c-.76-.33-1.44-.79-2.02-1.38-.58-.59-1.03-1.27-1.36-2.05-.33-.78-.49-1.62-.49-2.52s.16-1.72.47-2.51c.31-.79.76-1.48,1.34-2.08.58-.6,1.25-1.06,2-1.4.76-.34,1.58-.51,2.49-.51s1.69.17,2.45.51c.76.34,1.43.81,2,1.4.57.6,1.02,1.28,1.35,2.06.33.78.49,1.62.49,2.52s-.16,1.74-.48,2.52Z" style="fill: #0e181a;"/>
        <polygon points="98.42 172.28 98.42 169.79 87.92 169.79 87.92 187.32 90.5 187.32 90.5 180 97.43 180 97.43 177.54 90.5 177.54 90.5 172.28 98.42 172.28" style="fill: #0e181a;"/>
      </g>
      <rect y="194.55" width="389.16" height="5.73" style="fill: #0e181a;"/>
      <g>
        <path d="M128.88,169.96h3.42v17.36h-3.42v-17.36Z" style="fill: #0e181a;"/>
        <path d="M150.86,185.58c-.2.22-.53.44-.97.67-.44.23-.95.44-1.52.63-.57.19-1.16.34-1.76.46-.6.12-1.16.18-1.7.18-1.41,0-2.69-.21-3.82-.63-1.13-.42-2.1-1-2.9-1.74-.8-.75-1.42-1.63-1.84-2.65s-.64-2.14-.64-3.35c0-1.59.24-2.97.72-4.14.48-1.17,1.13-2.15,1.96-2.92.82-.78,1.78-1.36,2.85-1.73,1.08-.38,2.21-.57,3.39-.57,1.12,0,2.14.12,3.07.37.93.24,1.71.55,2.36.91l-1.11,3.18c-.28-.16-.66-.31-1.13-.47s-.95-.29-1.44-.39c-.49-.1-.92-.15-1.3-.15-.94,0-1.78.12-2.5.35-.72.24-1.33.59-1.83,1.06-.5.47-.87,1.06-1.12,1.76-.25.7-.38,1.51-.38,2.44,0,.82.14,1.55.42,2.21.28.65.68,1.21,1.19,1.66s1.12.8,1.82,1.04c.7.24,1.47.35,2.32.35.49,0,.94-.04,1.34-.11.41-.07.76-.18,1.04-.34v-2.1h-3v-3.3h6.46v7.34Z" style="fill: #0e181a;"/>
        <path d="M154.76,169.96h3.42v17.36h-3.42v-17.36Z" style="fill: #0e181a;"/>
        <path d="M161.48,169.96h11.7v3.3h-4.22v14.06h-3.42v-14.06h-4.06v-3.3Z" style="fill: #0e181a;"/>
        <path d="M185,187.32h3.96l-7.83-18.04h-.19l-7.83,18.04h3.37l1.41-3.4h5.76l1.34,3.4ZM179.09,181.05l1.76-4.23,1.67,4.23h-3.43Z" style="fill: #0e181a;"/>
        <path d="M191.48,169.96h3.42v14.06h8.16v3.3h-11.58v-17.36Z" style="fill: #0e181a;"/>
        <path d="M124.7,175.72c-.34-1.07-.89-2.04-1.64-2.9-.75-.86-1.73-1.56-2.96-2.08-1.23-.52-2.71-.78-4.46-.78h-5.19v3.28h0s3.17,0,3.17,0h0s.25,0,.25,0h2.78c.39,0,.87.08,1.44.22.57.15,1.12.42,1.66.81.54.39,1,.95,1.37,1.66.37.72.55,1.64.55,2.77,0,.87-.14,1.63-.41,2.3-.28.67-.67,1.22-1.18,1.66-.51.44-1.12.77-1.83,1-.71.23-1.49.34-2.36.34h-2.28v-6.5h-3.17v9.81h6.04c1.18,0,2.3-.19,3.35-.58,1.05-.39,1.98-.94,2.78-1.68.8-.73,1.44-1.61,1.9-2.64.46-1.03.7-2.19.7-3.48,0-1.09-.17-2.16-.52-3.23Z" style="fill: #0e181a;"/>
      </g>
      <g>
        <path d="M225.54,178.31c0-1.19.23-2.33.68-3.4.46-1.07,1.09-2.02,1.9-2.84.81-.83,1.75-1.47,2.82-1.95,1.07-.47,2.22-.71,3.44-.71s2.35.24,3.42.71c1.07.47,2.02,1.12,2.84,1.95s1.47,1.77,1.93,2.84c.46,1.07.7,2.2.7,3.4s-.23,2.37-.7,3.44c-.46,1.07-1.11,2.01-1.93,2.82s-1.77,1.44-2.84,1.9-2.21.68-3.42.68-2.37-.23-3.44-.68c-1.07-.46-2.01-1.09-2.82-1.9-.81-.81-1.44-1.75-1.9-2.82s-.68-2.22-.68-3.44ZM229.08,178.31c0,.77.14,1.49.41,2.16.27.67.66,1.26,1.16,1.77.5.51,1.07.91,1.72,1.19.65.28,1.36.43,2.13.43s1.43-.14,2.06-.43c.64-.28,1.19-.68,1.66-1.19.47-.51.84-1.1,1.11-1.77.27-.67.4-1.39.4-2.16s-.14-1.52-.41-2.19c-.27-.68-.65-1.27-1.13-1.78-.48-.51-1.04-.91-1.69-1.19-.64-.28-1.34-.43-2.1-.43s-1.45.14-2.1.43c-.64.28-1.21.68-1.7,1.19-.49.51-.87,1.1-1.13,1.78-.27.68-.4,1.41-.4,2.19Z" style="fill: #0e181a;"/>
        <path d="M249.76,180.55c0,.55.17,1.08.49,1.58.33.5.77.91,1.31,1.23.54.32,1.14.47,1.78.47.71,0,1.34-.16,1.89-.47.55-.31.99-.72,1.31-1.23.32-.5.48-1.03.48-1.58v-10.94h3.37v11.02c0,1.27-.32,2.4-.94,3.38-.63.98-1.48,1.75-2.55,2.31-1.07.56-2.26.84-3.56.84s-2.47-.28-3.53-.84c-1.06-.56-1.91-1.33-2.54-2.31-.63-.98-.94-2.11-.94-3.38v-11.02h3.42v10.94Z" style="fill: #0e181a;"/>
        <polygon points="276.72 169.61 276.79 180.07 264.67 168.92 264.53 168.92 264.53 186.97 267.99 186.97 267.93 176.71 280.07 187.68 280.17 187.68 280.17 169.61 276.72 169.61" style="fill: #0e181a;"/>
        <path d="M284.65,186.97v-17.36h5.19c1.75,0,3.23.26,4.46.78,1.23.52,2.21,1.21,2.96,2.08.75.87,1.29,1.83,1.64,2.9.35,1.07.52,2.15.52,3.23,0,1.29-.23,2.45-.7,3.48-.46,1.03-1.1,1.91-1.9,2.64-.8.73-1.73,1.29-2.78,1.68-1.05.39-2.17.58-3.35.58h-6.04ZM288.07,183.67h2.03c.87,0,1.65-.11,2.36-.34.71-.23,1.32-.56,1.83-1,.51-.44.9-.99,1.18-1.66.28-.67.41-1.43.41-2.3,0-1.13-.18-2.06-.55-2.77-.37-.72-.83-1.27-1.37-1.66-.54-.39-1.1-.66-1.66-.81-.57-.15-1.05-.22-1.44-.22h-2.78v10.78Z" style="fill: #0e181a;"/>
        <path d="M311.58,186.97h3.96l-7.83-18.04h-.19l-7.83,18.04h3.37l1.41-3.4h5.76l1.34,3.4ZM305.68,180.69l1.76-4.23,1.67,4.23h-3.43Z" style="fill: #0e181a;"/>
        <path d="M315.48,169.61h11.7v3.3h-4.22v14.06h-3.42v-14.06h-4.06v-3.3Z" style="fill: #0e181a;"/>
        <path d="M330.48,169.61h3.42v17.36h-3.42v-17.36Z" style="fill: #0e181a;"/>
        <path d="M337.32,178.31c0-1.19.23-2.33.68-3.4.46-1.07,1.09-2.02,1.9-2.84.81-.83,1.75-1.47,2.82-1.95,1.07-.47,2.22-.71,3.44-.71s2.35.24,3.42.71c1.07.47,2.02,1.12,2.84,1.95s1.47,1.77,1.93,2.84c.46,1.07.7,2.2.7,3.4s-.23,2.37-.7,3.44c-.46,1.07-1.11,2.01-1.93,2.82s-1.77,1.44-2.84,1.9-2.21.68-3.42.68-2.37-.23-3.44-.68c-1.07-.46-2.01-1.09-2.82-1.9s-1.44-1.75-1.9-2.82c-.46-1.07-.68-2.22-.68-3.44ZM340.86,178.31c0,.77.14,1.49.41,2.16.28.67.66,1.26,1.16,1.77.49.51,1.07.91,1.72,1.19.65.28,1.36.43,2.13.43s1.43-.14,2.06-.43c.64-.28,1.19-.68,1.66-1.19.47-.51.84-1.1,1.11-1.77.27-.67.4-1.39.4-2.16s-.14-1.52-.41-2.19c-.28-.68-.65-1.27-1.13-1.78s-1.04-.91-1.69-1.19c-.64-.28-1.34-.43-2.1-.43s-1.45.14-2.1.43c-.65.28-1.21.68-1.7,1.19s-.87,1.1-1.13,1.78c-.27.68-.4,1.41-.4,2.19Z" style="fill: #0e181a;"/>
        <polygon points="370.67 169.61 370.74 180.07 358.62 168.92 358.48 168.92 358.48 186.97 361.94 186.97 361.88 176.71 374.02 187.68 374.11 187.68 374.11 169.61 370.67 169.61" style="fill: #0e181a;"/>
        <path d="M387.87,173.81c-.66-.36-1.33-.66-2.02-.9-.68-.24-1.33-.35-1.92-.35-.74,0-1.32.15-1.75.45s-.64.75-.64,1.34c0,.41.16.77.48,1.1.32.32.74.61,1.25.86.51.25,1.04.48,1.59.68.5.19,1,.41,1.5.67.5.26.94.58,1.33.97.39.39.71.87.94,1.44.24.57.35,1.28.35,2.11,0,.88-.23,1.7-.68,2.45-.46.76-1.12,1.37-2,1.83-.88.46-1.97.7-3.26.7-.66,0-1.33-.07-2.02-.2-.68-.13-1.36-.34-2.02-.61-.66-.27-1.3-.62-1.91-1.05l1.51-2.67c.41.3.85.56,1.33.79.48.23.96.41,1.45.53.49.13.94.19,1.34.19s.82-.06,1.24-.18c.42-.12.76-.32,1.04-.6.27-.28.41-.68.41-1.18,0-.35-.11-.66-.34-.94-.23-.28-.53-.54-.92-.78-.38-.24-.81-.44-1.26-.61-.53-.2-1.09-.44-1.65-.71-.57-.27-1.1-.59-1.59-.98-.49-.39-.9-.86-1.2-1.44-.31-.57-.46-1.28-.46-2.11,0-1.01.22-1.88.67-2.62s1.08-1.32,1.9-1.76,1.76-.67,2.83-.72c1.4,0,2.54.16,3.41.49.87.33,1.65.72,2.35,1.18l-1.3,2.62Z" style="fill: #0e181a;"/>
        <g>
          <polygon points="224.68 169.61 212.45 169.61 212.49 173.18 223.5 173.18 224.68 169.61" style="fill: #0e181a;"/>
          <polygon points="222.36 177.16 215.87 177.16 212.45 177.16 212.45 186.97 215.87 186.97 215.87 180.46 221.27 180.46 222.36 177.16" style="fill: #0e181a;"/>
        </g>
      </g>
    </g>
    <g>
      <path d="M394.01,170.13c-2.25,0-4.07-1.83-4.07-4.07s1.83-4.07,4.07-4.07,4.07,1.83,4.07,4.07-1.83,4.07-4.07,4.07ZM394.01,162.64c-1.88,0-3.42,1.53-3.42,3.42s1.53,3.42,3.42,3.42,3.42-1.53,3.42-3.42-1.53-3.42-3.42-3.42Z" style="fill: #0e181a;"/>
      <path d="M393.36,167.92h-.56v-4h1.28c.19,0,.37.02.55.06s.32.1.45.19c.13.09.23.2.31.34.08.14.11.31.11.52,0,.29-.09.53-.27.71s-.41.3-.7.34l1.12,1.83h-.68l-1.02-1.78h-.6v1.78ZM393.36,165.67h.64c.13,0,.25-.01.37-.03.11-.02.21-.06.3-.11.08-.05.15-.12.2-.2.05-.08.07-.18.07-.3s-.02-.22-.07-.3c-.05-.08-.11-.15-.19-.19-.08-.05-.18-.08-.29-.1-.11-.02-.22-.03-.34-.03h-.68v1.28Z" style="fill: #0e181a;"/>
    </g>
  </g>
</svg>