<?xml version="1.0" encoding="UTF-8"?>
<svg id="logo-bright-transparent" xmlns="http://www.w3.org/2000/svg" viewBox="0 0 486.22 229.72">
  <g style="opacity: .9;">
    <polygon points="207.96 55.9 204.01 65.38 211.69 65.38 207.96 55.9" style="fill: #f3f9fd;"/>
    <path d="M233.36,159.07c-1.22-.88-2.46-1.49-3.72-1.82-1.27-.33-2.34-.5-3.22-.5h-6.23v24.14h4.54c1.94,0,3.7-.26,5.28-.77,1.59-.51,2.95-1.26,4.09-2.24,1.14-.98,2.02-2.23,2.64-3.72.62-1.5.93-3.21.93-5.15,0-2.53-.41-4.6-1.24-6.21-.83-1.6-1.85-2.84-3.06-3.72Z" style="fill: #f3f9fd;"/>
    <path d="M358.8,160c-1.07-1.14-2.33-2.03-3.78-2.67-1.44-.63-3.01-.95-4.7-.95s-3.26.32-4.7.95c-1.45.63-2.71,1.52-3.8,2.67-1.09,1.14-1.94,2.47-2.53,3.99-.6,1.51-.9,3.15-.9,4.91s.31,3.34.92,4.83c.62,1.5,1.48,2.82,2.59,3.96,1.11,1.14,2.39,2.03,3.85,2.67,1.46.63,3.05.95,4.78.95s3.2-.32,4.62-.95c1.43-.63,2.67-1.52,3.72-2.67,1.06-1.14,1.88-2.46,2.48-3.96.6-1.49.9-3.11.9-4.83s-.31-3.4-.92-4.91c-.62-1.51-1.46-2.84-2.54-3.99Z" style="fill: #f3f9fd;"/>
    <polygon points="259.63 174.23 267.31 174.23 263.58 164.76 259.63 174.23" style="fill: #f3f9fd;"/>
    <path d="M108.51,160c-1.08-1.14-2.33-2.03-3.78-2.67-1.44-.63-3.01-.95-4.7-.95s-3.26.32-4.7.95c-1.44.63-2.71,1.52-3.8,2.67-1.09,1.14-1.94,2.47-2.54,3.99-.6,1.51-.9,3.15-.9,4.91s.31,3.34.93,4.83c.61,1.5,1.48,2.82,2.59,3.96,1.11,1.14,2.39,2.03,3.86,2.67,1.46.63,3.05.95,4.78.95s3.2-.32,4.62-.95c1.43-.63,2.67-1.52,3.72-2.67,1.06-1.14,1.88-2.46,2.48-3.96.6-1.49.9-3.11.9-4.83s-.31-3.4-.93-4.91c-.61-1.51-1.46-2.84-2.53-3.99Z" style="fill: #f3f9fd;"/>
    <path d="M0,0v229.72h486.22V0H0ZM231.75,40.55h7.66v31.48h18.27v7.39h-25.93v-38.87ZM208.57,39.02l17.54,40.4h-8.87l-3-7.61h-12.9l-3.17,7.61h-7.55l17.54-40.4h.42ZM164.57,40.55h26.2v7.39h-9.45v31.48h-7.66v-31.48h-9.08v-7.39ZM149.52,40.55h7.66v38.87h-7.66v-38.87ZM108.51,51.83c1.07-2.62,2.53-4.81,4.38-6.55,1.85-1.74,3.98-3.04,6.39-3.88,2.41-.85,4.94-1.27,7.58-1.27,2.5,0,4.79.27,6.87.82,2.08.55,3.84,1.22,5.28,2.03l-2.48,7.13c-.63-.35-1.48-.7-2.54-1.06-1.06-.35-2.13-.64-3.22-.87-1.09-.23-2.06-.34-2.91-.34-2.11,0-3.98.26-5.6.79-1.62.53-2.99,1.32-4.09,2.38-1.11,1.06-1.95,2.37-2.51,3.93-.56,1.57-.85,3.39-.85,5.47,0,1.83.32,3.48.95,4.94.63,1.46,1.52,2.7,2.67,3.72,1.14,1.02,2.5,1.8,4.07,2.32,1.57.53,3.3.79,5.2.79,1.09,0,2.1-.08,3.01-.24.92-.16,1.69-.41,2.33-.77v-4.7h-6.71v-7.39h14.47v16.43c-.46.49-1.18,1-2.17,1.51-.99.51-2.12.98-3.41,1.4-1.29.42-2.6.77-3.93,1.03-1.34.26-2.61.4-3.8.4-3.17,0-6.02-.47-8.55-1.4-2.54-.93-4.7-2.23-6.5-3.91s-3.17-3.65-4.12-5.94c-.95-2.29-1.43-4.79-1.43-7.5,0-3.56.54-6.64,1.61-9.27ZM91.58,40.55h7.66v38.87h-7.66v-38.87ZM50.86,74.63v-17.16h7.09v14.57h5.11c.06,0,.12,0,.18,0h0c.93,0,1.82-.07,2.67-.2.04,0,.07-.01.11-.02.39-.06.76-.13,1.13-.21.38-.09.74-.19,1.1-.3.03,0,.06-.02.09-.02.94-.3,1.8-.7,2.59-1.17.53-.32,1.04-.67,1.51-1.07,1.14-.98,2.02-2.23,2.64-3.72.15-.37.29-.76.4-1.16.35-1.2.52-2.53.52-3.99,0-2.53-.41-4.6-1.24-6.21-.83-1.6-1.85-2.84-3.07-3.72-1.21-.88-2.46-1.49-3.72-1.82-.95-.25-1.79-.41-2.53-.47-.24-.02-.48-.03-.7-.03h-6.8s-7.09,0-7.09,0h0v-7.35h11.62c2.93,0,5.54.33,7.81.98.76.22,1.48.47,2.17.76,1.11.47,2.11,1.02,3.04,1.62.8.51,1.56,1.05,2.23,1.65.49.44.94.9,1.35,1.38,1.48,1.71,2.59,3.62,3.36,5.69.1.27.22.53.31.81.11.34.19.67.29,1.01.39,1.4.66,2.8.78,4.21.06.67.1,1.34.1,2.01h0c0,.81-.05,1.6-.13,2.37-.21,1.96-.68,3.77-1.42,5.42-.52,1.15-1.13,2.22-1.84,3.21s-1.51,1.89-2.41,2.71c-1.8,1.64-3.87,2.89-6.23,3.75-2.36.86-4.86,1.29-7.5,1.29h-13.52v-4.8ZM50.86,106.03h395.7v14.95H50.86v-14.95ZM70.62,173.72h-12.11v14.56h-7.66v-21.96h22.21l-2.44,7.39ZM75.61,157.42h-24.65l-.1-8.01h27.4l-2.65,8.01ZM118.33,176.61c-1.04,2.39-2.48,4.5-4.33,6.31-1.85,1.81-3.97,3.23-6.37,4.25-2.39,1.02-4.95,1.53-7.66,1.53s-5.32-.51-7.71-1.53c-2.39-1.02-4.5-2.44-6.31-4.25-1.81-1.81-3.23-3.92-4.25-6.31-1.02-2.39-1.53-4.96-1.53-7.71s.51-5.21,1.53-7.61c1.02-2.39,2.44-4.51,4.25-6.36,1.81-1.85,3.92-3.3,6.31-4.36,2.39-1.06,4.96-1.59,7.71-1.59s5.26.53,7.66,1.59c2.39,1.06,4.52,2.51,6.37,4.36,1.85,1.85,3.29,3.97,4.33,6.36,1.04,2.4,1.56,4.93,1.56,7.61s-.52,5.32-1.56,7.71ZM158.23,174.07c0,2.85-.71,5.38-2.11,7.58-1.41,2.2-3.31,3.93-5.7,5.18-2.39,1.25-5.05,1.88-7.97,1.88s-5.52-.62-7.9-1.88c-2.38-1.25-4.27-2.97-5.68-5.18-1.41-2.2-2.11-4.73-2.11-7.58v-24.67h7.66v24.51c0,1.23.37,2.41,1.11,3.54.74,1.13,1.72,2.04,2.93,2.75,1.22.71,2.55,1.06,3.99,1.06,1.58,0,2.99-.35,4.22-1.06,1.23-.7,2.21-1.62,2.93-2.75.72-1.13,1.08-2.31,1.08-3.54v-24.51h7.55v24.67ZM202.49,189.87h-.21l-27.2-24.56.15,22.98h-7.76v-40.4h.32l27.14,24.96-.15-23.42h7.71v40.46ZM244.03,177.32c-1.04,2.31-2.46,4.28-4.25,5.92-1.8,1.64-3.87,2.89-6.23,3.75-2.36.86-4.86,1.29-7.5,1.29h-13.52v-38.87h11.62c3.91,0,7.24.58,9.98,1.74,2.75,1.16,4.96,2.71,6.63,4.65,1.67,1.94,2.9,4.1,3.67,6.5.77,2.39,1.16,4.81,1.16,7.24,0,2.89-.52,5.48-1.56,7.79ZM272.85,188.28l-3-7.61h-12.9l-3.17,7.61h-7.55l17.54-40.4h.42l17.54,40.4h-8.87ZM307.76,156.8h-9.45v31.48h-7.66v-31.48h-9.08v-7.39h26.2v7.39ZM322.81,188.28h-7.66v-38.87h7.66v38.87ZM368.63,176.61c-1.04,2.39-2.48,4.5-4.33,6.31-1.85,1.81-3.97,3.23-6.36,4.25-2.39,1.02-4.95,1.53-7.66,1.53s-5.32-.51-7.71-1.53c-2.39-1.02-4.5-2.44-6.31-4.25s-3.23-3.92-4.25-6.31c-1.02-2.39-1.53-4.96-1.53-7.71s.51-5.21,1.53-7.61c1.02-2.39,2.44-4.51,4.25-6.36s3.92-3.3,6.31-4.36c2.39-1.06,4.96-1.59,7.71-1.59s5.26.53,7.66,1.59c2.39,1.06,4.51,2.51,6.36,4.36,1.85,1.85,3.29,3.97,4.33,6.36,1.04,2.4,1.56,4.93,1.56,7.61s-.52,5.32-1.56,7.71ZM412.86,189.87h-.21l-27.2-24.56.15,22.98h-7.76v-40.4h.32l27.14,24.96-.15-23.42h7.71v40.46ZM430.58,162.48c.72.72,1.65,1.37,2.8,1.93,1.14.56,2.33,1.08,3.56,1.53,1.13.42,2.25.92,3.35,1.5,1.11.58,2.1,1.3,2.98,2.17.88.86,1.59,1.94,2.11,3.22.53,1.29.79,2.86.79,4.73,0,1.97-.51,3.8-1.53,5.49-1.02,1.69-2.52,3.06-4.49,4.09-1.97,1.04-4.4,1.56-7.29,1.56-1.48,0-2.98-.15-4.52-.45-1.53-.3-3.04-.76-4.52-1.37-1.48-.61-2.9-1.4-4.28-2.35l3.38-5.97c.92.67,1.91,1.26,2.99,1.77,1.07.51,2.16.91,3.25,1.19,1.09.28,2.1.42,3.01.42s1.84-.13,2.77-.4c.93-.26,1.71-.71,2.32-1.35.61-.63.92-1.51.92-2.64,0-.77-.26-1.48-.77-2.11-.51-.63-1.2-1.22-2.06-1.74-.86-.53-1.8-.98-2.82-1.37-1.2-.46-2.43-.98-3.7-1.59-1.27-.6-2.46-1.33-3.57-2.19-1.11-.86-2.01-1.94-2.69-3.22-.69-1.29-1.03-2.86-1.03-4.73,0-2.25.5-4.21,1.51-5.86,1-1.65,2.42-2.97,4.25-3.93,1.83-.97,3.94-1.51,6.34-1.61,3.13,0,5.68.37,7.63,1.11,1.95.74,3.7,1.62,5.26,2.64l-2.91,5.86c-1.48-.81-2.98-1.48-4.52-2.01-1.53-.53-2.97-.79-4.3-.79-1.66,0-2.96.33-3.91,1-.95.67-1.43,1.67-1.43,3.01,0,.92.36,1.73,1.08,2.45ZM435.2,88.2c-6.63,0-12.02-5.39-12.02-12.02s5.39-12.02,12.02-12.02,12.02,5.39,12.02,12.02-5.39,12.02-12.02,12.02Z" style="fill: #f3f9fd;"/>
    <path d="M435.2,66.09c-5.56,0-10.08,4.52-10.08,10.08s4.52,10.08,10.08,10.08,10.08-4.52,10.08-10.08-4.52-10.08-10.08-10.08ZM438.03,81.69l-3-5.25h-1.77v5.25h-1.65v-11.79h3.78c.57,0,1.1.06,1.62.17.51.12.96.3,1.34.56.38.26.69.59.91,1.01.22.42.33.92.33,1.52,0,.87-.27,1.57-.8,2.1-.53.53-1.22.87-2.07,1.02l3.3,5.41h-2Z" style="fill: #f3f9fd;"/>
    <path d="M437.71,74.05c.14-.24.22-.54.22-.89s-.07-.65-.22-.89c-.14-.24-.34-.43-.57-.57-.24-.14-.52-.25-.84-.31-.32-.06-.66-.09-1.02-.09h-2.02v3.76h1.9c.39,0,.75-.03,1.08-.1.33-.07.62-.17.87-.32.25-.15.45-.34.59-.58Z" style="fill: #f3f9fd;"/>
  </g>
</svg>