<?xml version="1.0" encoding="UTF-8"?>
<svg id="icon-dark-transparent" xmlns="http://www.w3.org/2000/svg" viewBox="0 0 107.72 107.72">
  <path d="M92.62,15.93c.07-.12.11-.27.11-.45s-.04-.33-.11-.45c-.07-.12-.17-.21-.29-.29-.12-.07-.26-.12-.42-.15-.16-.03-.33-.05-.51-.05h-1.01v1.88h.95c.19,0,.37-.02.54-.05.17-.03.31-.09.44-.16.12-.07.22-.17.3-.29Z" style="fill: #0e181a; opacity: .9;"/>
  <path d="M91.36,11.96c-2.78,0-5.04,2.26-5.04,5.04s2.26,5.04,5.04,5.04,5.04-2.26,5.04-5.04-2.26-5.04-5.04-5.04ZM92.78,19.75l-1.5-2.62h-.88v2.62h-.82v-5.89h1.89c.28,0,.55.03.81.09.26.06.48.15.67.28.19.13.34.3.45.5.11.21.17.46.17.76,0,.43-.13.78-.4,1.05-.27.27-.61.44-1.03.51l1.65,2.7h-1Z" style="fill: #0e181a; opacity: .9;"/>
  <path d="M0,0v107.72h107.72V0H0ZM80.74,32.11l-1.93,5.84h-17.97l-.07-5.84h19.97ZM60.78,44.43h16.18l-1.78,5.39h-8.82v10.61h-5.58v-16ZM29.76,56.94v-12.5h5.17v10.61h3.72c1.41,0,2.69-.19,3.85-.56,1.16-.37,2.15-.92,2.98-1.64.83-.72,1.48-1.62,1.92-2.71.45-1.09.67-2.34.67-3.75,0-1.85-.3-3.35-.9-4.52-.6-1.17-1.35-2.07-2.23-2.71-.88-.64-1.79-1.08-2.71-1.33-.92-.24-1.71-.37-2.35-.37h-4.96s-5.17,0-5.17,0h0v-5.36h8.47c2.85,0,5.27.42,7.27,1.27,2,.85,3.61,1.98,4.83,3.39,1.22,1.41,2.11,2.99,2.67,4.74.57,1.75.85,3.5.85,5.27,0,2.1-.38,4-1.14,5.68-.76,1.68-1.79,3.12-3.1,4.31-1.31,1.19-2.82,2.1-4.54,2.73-1.72.63-3.54.94-5.46.94h-9.85v-3.5ZM82.64,81.61H25.08v-9.54h57.56v9.54ZM91.36,23c-3.31,0-6.01-2.69-6.01-6.01s2.69-6.01,6.01-6.01,6.01,2.69,6.01,6.01-2.69,6.01-6.01,6.01Z" style="fill: #0e181a; opacity: .9;"/>
</svg>