<?xml version="1.0" encoding="UTF-8"?>
<svg id="icon-bright-solid" xmlns="http://www.w3.org/2000/svg" viewBox="0 0 107.72 107.72">
  <rect width="107.72" height="107.72" style="fill: #f3f9fd;"/>
  <g>
    <path d="M91.36,23c-3.31,0-6.01-2.69-6.01-6.01s2.69-6.01,6.01-6.01,6.01,2.69,6.01,6.01-2.69,6.01-6.01,6.01ZM91.36,11.96c-2.78,0-5.04,2.26-5.04,5.04s2.26,5.04,5.04,5.04,5.04-2.26,5.04-5.04-2.26-5.04-5.04-5.04Z" style="fill: #0e181a;"/>
    <path d="M90.4,19.75h-.82v-5.89h1.89c.28,0,.55.03.81.09s.48.15.67.28c.19.13.34.3.45.5.11.21.17.46.17.76,0,.43-.13.78-.4,1.05s-.61.44-1.03.51l1.65,2.7h-1l-1.5-2.62h-.88v2.62ZM90.4,16.44h.95c.19,0,.37-.02.54-.05.17-.03.31-.09.44-.16.12-.07.22-.17.3-.29.07-.12.11-.27.11-.45s-.04-.33-.11-.45c-.07-.12-.17-.21-.29-.29-.12-.07-.26-.12-.42-.15-.16-.03-.33-.05-.51-.05h-1.01v1.88Z" style="fill: #0e181a;"/>
  </g>
  <g>
    <rect x="25.08" y="72.07" width="57.56" height="9.54" style="fill: #0e181a;"/>
    <polygon points="80.74 32.11 60.78 32.11 60.85 37.94 78.82 37.94 80.74 32.11" style="fill: #0e181a;"/>
    <polygon points="76.96 44.43 66.36 44.43 60.78 44.43 60.78 60.44 66.36 60.44 66.36 49.82 75.18 49.82 76.96 44.43" style="fill: #0e181a;"/>
    <path d="M53.01,41.5c-.56-1.74-1.46-3.32-2.67-4.74-1.22-1.41-2.83-2.54-4.83-3.39-2-.85-4.43-1.27-7.27-1.27h-8.47v5.35h0s5.17,0,5.17,0h0s.41,0,.41,0h4.54c.64,0,1.42.12,2.35.37.92.24,1.83.69,2.71,1.33.89.64,1.63,1.55,2.23,2.71.6,1.17.9,2.68.9,4.52,0,1.41-.22,2.66-.67,3.75-.45,1.09-1.09,2-1.92,2.71-.83.72-1.83,1.26-2.98,1.64-1.16.37-2.44.56-3.85.56h-3.72v-10.61h-5.17v16h9.85c1.92,0,3.75-.31,5.47-.94,1.72-.63,3.23-1.54,4.54-2.73,1.31-1.19,2.34-2.63,3.1-4.31.76-1.68,1.14-3.57,1.14-5.68,0-1.77-.28-3.53-.85-5.27Z" style="fill: #0e181a;"/>
  </g>
</svg>