<?xml version="1.0" encoding="UTF-8"?>
<svg id="logo-bright-solid" xmlns="http://www.w3.org/2000/svg" viewBox="0 0 486.22 229.72">
  <rect width="486.22" height="229.72" style="fill: #f3f9fd;"/>
  <g>
    <rect x="50.86" y="106.04" width="395.7" height="14.95" style="fill: #0e181a;"/>
    <path d="M435.2,88.2c-6.63,0-12.02-5.39-12.02-12.02s5.39-12.02,12.02-12.02,12.02,5.39,12.02,12.02-5.39,12.02-12.02,12.02ZM435.2,66.1c-5.56,0-10.08,4.52-10.08,10.08s4.52,10.08,10.08,10.08,10.08-4.52,10.08-10.08-4.52-10.08-10.08-10.08Z" style="fill: #0e181a;"/>
    <path d="M433.26,81.69h-1.65v-11.79h3.78c.57,0,1.1.06,1.62.17s.96.3,1.34.56c.38.26.69.59.91,1.01.22.42.33.92.33,1.52,0,.87-.27,1.57-.8,2.1s-1.22.87-2.07,1.02l3.3,5.41h-2l-3-5.25h-1.77v5.25ZM433.26,75.06h1.9c.39,0,.75-.03,1.08-.1.33-.07.62-.17.87-.32.25-.15.45-.34.59-.58.14-.24.22-.54.22-.89s-.07-.65-.22-.89c-.14-.24-.34-.43-.57-.57-.24-.14-.52-.25-.84-.31-.32-.06-.66-.09-1.02-.09h-2.02v3.76Z" style="fill: #0e181a;"/>
    <path d="M91.58,40.56h7.66v38.87h-7.66v-38.87Z" style="fill: #0e181a;"/>
    <path d="M140.8,75.52c-.46.49-1.18,1-2.17,1.51-.99.51-2.12.98-3.41,1.4-1.29.42-2.6.77-3.93,1.03-1.34.26-2.61.4-3.8.4-3.17,0-6.02-.47-8.55-1.4-2.54-.93-4.7-2.23-6.5-3.91-1.8-1.67-3.17-3.65-4.12-5.94s-1.43-4.79-1.43-7.5c0-3.56.54-6.64,1.61-9.27,1.07-2.62,2.53-4.81,4.38-6.55,1.85-1.74,3.98-3.04,6.39-3.88,2.41-.85,4.94-1.27,7.58-1.27,2.5,0,4.79.27,6.87.82,2.08.55,3.84,1.22,5.28,2.03l-2.48,7.13c-.63-.35-1.48-.7-2.54-1.06s-2.13-.64-3.22-.87c-1.09-.23-2.06-.34-2.91-.34-2.11,0-3.98.26-5.6.79-1.62.53-2.99,1.32-4.09,2.38-1.11,1.06-1.95,2.37-2.51,3.93-.56,1.57-.85,3.39-.85,5.47,0,1.83.32,3.48.95,4.94.63,1.46,1.52,2.7,2.67,3.72,1.14,1.02,2.5,1.8,4.07,2.32,1.57.53,3.3.79,5.2.79,1.09,0,2.1-.08,3.01-.24.92-.16,1.69-.41,2.33-.77v-4.7h-6.71v-7.39h14.47v16.43Z" style="fill: #0e181a;"/>
    <path d="M149.52,40.56h7.66v38.87h-7.66v-38.87Z" style="fill: #0e181a;"/>
    <path d="M164.57,40.56h26.2v7.39h-9.45v31.48h-7.66v-31.48h-9.08v-7.39Z" style="fill: #0e181a;"/>
    <path d="M217.23,79.43h8.87l-17.54-40.4h-.42l-17.54,40.4h7.55l3.17-7.61h12.9l3,7.61ZM204.01,65.38l3.95-9.48,3.73,9.48h-7.68Z" style="fill: #0e181a;"/>
    <path d="M231.75,40.56h7.66v31.48h18.27v7.39h-25.93v-38.87Z" style="fill: #0e181a;"/>
    <polygon points="57.95 72.04 57.95 70.58 57.95 57.47 50.86 57.47 50.86 72.04 50.86 74.63 50.86 79.43 57.95 79.43 57.95 72.04" style="fill: #0e181a;"/>
    <path d="M82.76,53.45c-.77-2.39-2-4.56-3.67-6.5-1.67-1.94-3.88-3.49-6.63-4.65-2.75-1.16-6.07-1.74-9.98-1.74h-11.62v7.34h0s7.09,0,7.09,0h0s.57,0,.57,0h6.23c.88,0,1.95.17,3.22.5,1.27.34,2.51.94,3.72,1.82,1.22.88,2.24,2.12,3.07,3.72.83,1.6,1.24,3.67,1.24,6.21,0,1.94-.31,3.65-.92,5.15-.62,1.5-1.5,2.74-2.64,3.72-1.14.99-2.51,1.73-4.09,2.24-1.53.49-3.23.75-5.1.76v7.4h1.14c2.64,0,5.14-.43,7.5-1.29,2.36-.86,4.44-2.11,6.23-3.75,1.8-1.64,3.21-3.61,4.25-5.92,1.04-2.31,1.56-4.9,1.56-7.79,0-2.43-.39-4.84-1.16-7.24Z" style="fill: #0e181a;"/>
    <path d="M80.17,168.9c0-2.68.51-5.21,1.53-7.61,1.02-2.39,2.44-4.51,4.25-6.36,1.81-1.85,3.92-3.3,6.31-4.36,2.39-1.06,4.96-1.59,7.71-1.59s5.26.53,7.66,1.59c2.39,1.06,4.52,2.51,6.37,4.36,1.85,1.85,3.29,3.97,4.33,6.36,1.04,2.4,1.56,4.93,1.56,7.61s-.52,5.32-1.56,7.71c-1.04,2.39-2.48,4.5-4.33,6.31s-3.97,3.23-6.37,4.25c-2.39,1.02-4.95,1.53-7.66,1.53s-5.32-.51-7.71-1.53c-2.39-1.02-4.5-2.44-6.31-4.25-1.81-1.81-3.23-3.92-4.25-6.31s-1.53-4.96-1.53-7.71ZM88.09,168.9c0,1.73.31,3.34.93,4.83.61,1.5,1.48,2.82,2.59,3.96,1.11,1.14,2.39,2.03,3.86,2.67,1.46.63,3.05.95,4.78.95s3.2-.32,4.62-.95c1.43-.63,2.67-1.52,3.72-2.67,1.06-1.14,1.88-2.46,2.48-3.96.6-1.49.9-3.11.9-4.83s-.31-3.4-.93-4.91c-.61-1.51-1.46-2.84-2.53-3.99-1.08-1.14-2.33-2.03-3.78-2.67-1.44-.63-3.01-.95-4.7-.95s-3.26.32-4.7.95c-1.44.63-2.71,1.52-3.8,2.67-1.09,1.14-1.94,2.47-2.54,3.99-.6,1.51-.9,3.15-.9,4.91Z" style="fill: #0e181a;"/>
    <path d="M134.41,173.92c0,1.23.37,2.41,1.11,3.54.74,1.13,1.72,2.04,2.93,2.75,1.22.71,2.54,1.06,3.99,1.06,1.58,0,2.99-.35,4.22-1.06,1.23-.7,2.21-1.62,2.93-2.75.72-1.13,1.08-2.31,1.08-3.54v-24.51h7.55v24.67c0,2.85-.71,5.38-2.11,7.58-1.41,2.2-3.31,3.93-5.7,5.18-2.39,1.25-5.05,1.88-7.97,1.88s-5.52-.62-7.9-1.88c-2.38-1.25-4.27-2.97-5.68-5.18-1.41-2.2-2.11-4.73-2.11-7.58v-24.67h7.66v24.51Z" style="fill: #0e181a;"/>
    <polygon points="194.78 149.41 194.94 172.84 167.79 147.88 167.48 147.88 167.48 188.28 175.24 188.28 175.09 165.31 202.28 189.87 202.49 189.87 202.49 149.41 194.78 149.41" style="fill: #0e181a;"/>
    <path d="M212.53,188.28v-38.87h11.62c3.91,0,7.24.58,9.98,1.74,2.75,1.16,4.96,2.71,6.63,4.65,1.67,1.94,2.9,4.1,3.67,6.5.77,2.39,1.16,4.81,1.16,7.24,0,2.89-.52,5.48-1.56,7.79-1.04,2.31-2.46,4.28-4.25,5.92-1.8,1.64-3.87,2.89-6.23,3.75-2.36.86-4.86,1.29-7.5,1.29h-13.52ZM220.19,180.89h4.54c1.94,0,3.7-.26,5.28-.77,1.59-.51,2.95-1.26,4.09-2.24,1.14-.98,2.02-2.23,2.64-3.72.62-1.5.93-3.21.93-5.15,0-2.53-.41-4.6-1.24-6.21-.83-1.6-1.85-2.84-3.06-3.72-1.22-.88-2.46-1.49-3.72-1.82-1.27-.33-2.34-.5-3.22-.5h-6.23v24.14Z" style="fill: #0e181a;"/>
    <path d="M272.85,188.28h8.87l-17.54-40.4h-.42l-17.54,40.4h7.55l3.17-7.61h12.9l3,7.61ZM259.63,174.24l3.95-9.48,3.73,9.48h-7.68Z" style="fill: #0e181a;"/>
    <path d="M281.56,149.41h26.2v7.39h-9.45v31.48h-7.66v-31.48h-9.08v-7.39Z" style="fill: #0e181a;"/>
    <path d="M315.15,149.41h7.66v38.87h-7.66v-38.87Z" style="fill: #0e181a;"/>
    <path d="M330.47,168.9c0-2.68.51-5.21,1.53-7.61,1.02-2.39,2.44-4.51,4.25-6.36,1.81-1.85,3.92-3.3,6.31-4.36,2.39-1.06,4.96-1.59,7.71-1.59s5.26.53,7.66,1.59c2.39,1.06,4.51,2.51,6.36,4.36,1.85,1.85,3.29,3.97,4.33,6.36,1.04,2.4,1.56,4.93,1.56,7.61s-.52,5.32-1.56,7.71c-1.04,2.39-2.48,4.5-4.33,6.31-1.85,1.81-3.97,3.23-6.36,4.25-2.39,1.02-4.95,1.53-7.66,1.53s-5.32-.51-7.71-1.53c-2.39-1.02-4.5-2.44-6.31-4.25-1.81-1.81-3.23-3.92-4.25-6.31-1.02-2.39-1.53-4.96-1.53-7.71ZM338.39,168.9c0,1.73.31,3.34.92,4.83.62,1.5,1.48,2.82,2.59,3.96,1.11,1.14,2.39,2.03,3.85,2.67,1.46.63,3.05.95,4.78.95s3.2-.32,4.62-.95c1.43-.63,2.67-1.52,3.72-2.67,1.06-1.14,1.88-2.46,2.48-3.96.6-1.49.9-3.11.9-4.83s-.31-3.4-.92-4.91c-.62-1.51-1.46-2.84-2.54-3.99-1.07-1.14-2.33-2.03-3.78-2.67-1.44-.63-3.01-.95-4.7-.95s-3.26.32-4.7.95c-1.45.63-2.71,1.52-3.8,2.67s-1.94,2.47-2.53,3.99c-.6,1.51-.9,3.15-.9,4.91Z" style="fill: #0e181a;"/>
    <polygon points="405.15 149.41 405.31 172.84 378.16 147.88 377.85 147.88 377.85 188.28 385.61 188.28 385.46 165.31 412.65 189.87 412.86 189.87 412.86 149.41 405.15 149.41" style="fill: #0e181a;"/>
    <path d="M443.65,158.81c-1.48-.81-2.98-1.48-4.51-2.01-1.53-.53-2.97-.79-4.3-.79-1.66,0-2.96.33-3.91,1s-1.43,1.67-1.43,3.01c0,.92.36,1.73,1.08,2.45.72.72,1.65,1.37,2.8,1.93,1.14.56,2.33,1.08,3.56,1.53,1.13.42,2.25.92,3.35,1.5,1.11.58,2.1,1.3,2.98,2.17.88.86,1.59,1.94,2.11,3.22.53,1.29.79,2.86.79,4.73,0,1.97-.51,3.8-1.53,5.49-1.02,1.69-2.52,3.06-4.49,4.09-1.97,1.04-4.4,1.56-7.29,1.56-1.48,0-2.98-.15-4.51-.45-1.53-.3-3.04-.76-4.52-1.37-1.48-.61-2.9-1.4-4.28-2.35l3.38-5.97c.92.67,1.91,1.26,2.99,1.77,1.07.51,2.15.91,3.25,1.19,1.09.28,2.1.42,3.01.42s1.84-.13,2.77-.4c.93-.26,1.71-.71,2.32-1.35.61-.63.92-1.51.92-2.64,0-.77-.26-1.48-.77-2.11-.51-.63-1.2-1.22-2.06-1.74-.86-.53-1.8-.98-2.82-1.37-1.2-.46-2.43-.98-3.7-1.59-1.27-.6-2.46-1.33-3.57-2.19-1.11-.86-2.01-1.94-2.69-3.22-.69-1.29-1.03-2.86-1.03-4.73,0-2.25.5-4.21,1.51-5.86,1-1.65,2.42-2.97,4.25-3.93s3.94-1.51,6.34-1.61c3.13,0,5.68.37,7.63,1.11,1.95.74,3.7,1.62,5.26,2.64l-2.91,5.86Z" style="fill: #0e181a;"/>
    <polygon points="78.26 149.41 50.86 149.41 50.96 157.42 75.61 157.42 78.26 149.41" style="fill: #0e181a;"/>
    <polygon points="73.06 166.33 58.52 166.33 50.86 166.33 50.86 188.28 58.52 188.28 58.52 173.72 70.62 173.72 73.06 166.33" style="fill: #0e181a;"/>
    <path d="M82.76,53.45c-.77-2.39-2-4.56-3.67-6.5-1.67-1.94-3.88-3.49-6.63-4.65-2.75-1.16-6.07-1.74-9.98-1.74h-11.62v7.34h0s7.09,0,7.09,0h0s.57,0,.57,0h6.23c.88,0,1.95.17,3.22.5,1.27.34,2.51.94,3.72,1.82,1.22.88,2.24,2.12,3.07,3.72.83,1.6,1.24,3.67,1.24,6.21,0,1.94-.31,3.65-.93,5.15-.62,1.5-1.5,2.74-2.64,3.72-1.14.99-2.51,1.73-4.09,2.24-1.59.51-3.34.77-5.28.77h-5.11v-14.57h-7.09v21.96h13.52c2.64,0,5.14-.43,7.5-1.29,2.36-.86,4.44-2.11,6.23-3.75,1.8-1.64,3.21-3.61,4.25-5.92,1.04-2.31,1.56-4.9,1.56-7.79,0-2.43-.39-4.84-1.16-7.24Z" style="fill: #0e181a;"/>
  </g>
</svg>