<?xml version="1.0" encoding="UTF-8"?>
<svg xmlns="http://www.w3.org/2000/svg" xmlns:xlink="http://www.w3.org/1999/xlink" version="1.1" viewBox="0 0 841.89 327.33">
  <!-- Generator: Adobe Illustrator 29.8.1, SVG Export Plug-In . SVG Version: 2.1.1 Build 2)  -->
  <defs>
    <style>
      .st0, .st1, .st2, .st3 {
        font-family: Roboto-Thin, Roboto;
        font-size: 27px;
        font-weight: 200;
      }

      .st0, .st4 {
        fill: #1f2321;
      }

      .st5 {
        font-family: Roboto-BlackItalic, Roboto;
        font-size: 11px;
        font-style: italic;
        font-weight: 800;
      }

      .st5, .st6, .st7, .st8 {
        fill: #fff;
      }

      .st9 {
        stroke-dasharray: 6.08 6.08;
      }

      .st9, .st10, .st11, .st12, .st13, .st14, .st15, .st16, .st17, .st18, .st19, .st20, .st21, .st22 {
        fill: none;
        stroke-miterlimit: 10;
      }

      .st9, .st10, .st11, .st12, .st14, .st15, .st16, .st17, .st18, .st20, .st21, .st22 {
        stroke: #fff;
      }

      .st10 {
        stroke-dasharray: 3.41 3.41;
      }

      .st10, .st14, .st18, .st21, .st22 {
        stroke-width: .87px;
      }

      .st6 {
        font-family: Roboto-Regular, Roboto;
        font-size: 13px;
      }

      .st23 {
        fill: #29ade4;
      }

      .st23, .st24 {
        display: none;
      }

      .st1 {
        fill: #5e9358;
      }

      .st12 {
        stroke-dasharray: 3.91 3.91;
      }

      .st12, .st15, .st17 {
        stroke-width: .99px;
      }

      .st13 {
        stroke-dasharray: 6.61 6.61;
      }

      .st13, .st19 {
        stroke: #72c167;
      }

      .st25 {
        fill: url(#linear-gradient);
      }

      .st25, .st26, .st27 {
        opacity: .8;
      }

      .st2, .st27 {
        fill: #ce242b;
      }

      .st26 {
        fill: #46b649;
      }

      .st16 {
        stroke-dasharray: 5.7 5.7;
      }

      .st17 {
        stroke-dasharray: 3.91 3.91;
      }

      .st3 {
        fill: #0075b2;
      }

      .st18 {
        stroke-dasharray: 3.36 3.36;
      }

      .st20 {
        stroke-width: 1.86px;
      }

      .st4 {
        opacity: .93;
      }

      .st21 {
        stroke-dasharray: 3.46 3.46;
      }

      .st22 {
        stroke-dasharray: 3.36 3.36;
      }

      .st24 {
        fill: #577a9a;
      }

      .st8 {
        isolation: isolate;
        opacity: .4;
      }
    </style>
    <linearGradient id="linear-gradient" x1="220.01" y1="186.22" x2="655.42" y2="186.22" gradientUnits="userSpaceOnUse">
      <stop offset=".12" stop-color="#1f2321"/>
      <stop offset=".64" stop-color="#0075b2"/>
    </linearGradient>
  </defs>
  <g id="bg">
    <g>
      <path id="outline" class="st7" d="M709.71,83.24c-31.47,0-59.66,14-78.7,36.1-19.05-22.6-47.56-36.96-79.43-36.96-19.43,0-37.61,5.34-53.16,14.63h0s-.03.02-.08.05c-.27.16-.54.32-.81.49-4.56,2.68-27.99,17.23-61.14,17.23-31.13,0-57.92-16.88-57.92-16.88h0c-1.97-1.21-3.99-2.37-6.05-3.46-.03-.01-.05-.03-.08-.04-3.05-1.61-6.19-3.08-9.41-4.39-.08-.03-.15-.06-.23-.09-2.1-.85-4.23-1.63-6.4-2.34-.14-.05-.27-.09-.41-.13-1.01-.33-2.02-.64-3.04-.94-.07-.02-.13-.04-.2-.06-1.09-.32-2.19-.61-3.3-.89-.12-.03-.25-.06-.37-.09-.95-.24-1.91-.46-2.88-.67-.21-.05-.43-.09-.64-.14-2.15-.46-4.33-.85-6.53-1.17-.27-.04-.53-.08-.8-.11-.9-.12-1.81-.24-2.72-.34-.21-.02-.42-.05-.64-.07-1.09-.11-2.19-.21-3.29-.29-.24-.02-.48-.03-.72-.05-.89-.06-1.77-.11-2.66-.14-.31-.01-.62-.03-.93-.04-1.11-.04-2.22-.06-3.34-.06-.9,0-1.79.01-2.68.03-1.78.05-3.55.14-5.31.27-1.67.13-3.32.3-4.97.5-.96.12-1.91.25-2.86.39-1.72.26-3.42.57-5.11.91-3.38.69-6.7,1.55-9.95,2.56-1.63.51-3.23,1.05-4.82,1.63s-3.16,1.2-4.72,1.86c-2.33.99-4.62,2.05-6.85,3.2-1.77.91-3.51,1.87-5.22,2.87-1.17.69-2.34,1.39-3.48,2.13-.7.45-1.4.91-2.09,1.38-1.77,1.2-3.5,2.45-5.19,3.75-2.26,1.74-4.46,3.57-6.57,5.49-.61.56-1.22,1.12-1.82,1.7s-1.2,1.15-1.78,1.74-1.17,1.18-1.74,1.78c-.57.6-1.14,1.21-1.7,1.82-.57.62-1.12,1.25-1.68,1.89-19.04-21.99-47.16-35.91-78.54-35.91-57.35,0-103.84,46.49-103.84,103.84s46.49,103.84,103.84,103.84c31.37,0,59.5-13.91,78.54-35.91.55.64,1.11,1.27,1.68,1.89.56.61,1.12,1.22,1.7,1.82,1.15,1.2,2.32,2.38,3.52,3.52.6.57,1.21,1.14,1.82,1.7,3.69,3.35,7.62,6.44,11.76,9.24.69.47,1.39.92,2.09,1.38,2.81,1.8,5.71,3.47,8.7,5,2.24,1.15,4.52,2.21,6.85,3.2,6.21,2.63,12.73,4.67,19.49,6.05,1.69.35,3.39.65,5.11.91,4.3.66,8.68,1.05,13.13,1.16.89.02,1.78.03,2.68.03,1.12,0,2.23-.02,3.34-.06.31,0,.62-.02.93-.04.89-.04,1.78-.08,2.66-.14.24-.02.48-.03.72-.05,1.1-.08,2.19-.18,3.28-.29.21-.02.43-.05.64-.07.91-.1,1.82-.21,2.72-.34.27-.04.53-.07.8-.11,2.2-.32,4.38-.71,6.53-1.17.22-.05.43-.09.64-.14.96-.21,1.92-.43,2.88-.67.12-.03.25-.06.37-.09,1.11-.28,2.21-.58,3.3-.89.07-.02.13-.04.2-.06,1.02-.3,2.03-.61,3.04-.94.14-.04.27-.09.41-.13,2.17-.71,4.3-1.49,6.4-2.34.08-.03.15-.06.22-.09,3.22-1.31,6.36-2.78,9.41-4.39.02-.01.05-.03.07-.04,2.06-1.09,4.08-2.25,6.05-3.47h0s.02,0,.02-.01h0c2.44-1.51,31.99-18.56,57.9-18.56,28.58,0,58.82,17.55,62.03,19.46h0c15.55,9.29,33.73,14.63,53.16,14.63,31.47,0,59.66-14,78.7-36.1,19.05,22.6,47.56,36.96,79.43,36.96,57.35,0,103.84-46.49,103.84-103.84s-46.49-103.84-103.84-103.84Z"/>
      <path id="outline1" data-name="outline" class="st7" d="M551.58,82.38c31.87,0,60.38,14.36,79.43,36.96,19.04-22.11,47.24-36.1,78.7-36.1,57.35,0,103.84,46.49,103.84,103.84s-46.49,103.84-103.84,103.84c-31.87,0-60.38-14.36-79.43-36.96-19.04,22.11-47.24,36.1-78.7,36.1-19.43,0-37.61-5.34-53.16-14.63h0c-3.21-1.92-33.45-19.46-62.03-19.46-25.91,0-55.46,17.05-57.9,18.56h0s-.02.02-.02.02h0c-1.97,1.22-3.99,2.38-6.05,3.47-.02.01-.05.03-.07.04-3.05,1.61-6.19,3.08-9.41,4.39-.07.03-.15.06-.22.09-2.1.85-4.23,1.63-6.4,2.34-.14.04-.27.09-.41.13-1.01.33-2.02.64-3.04.94-.07.02-.13.04-.2.06-1.09.32-2.19.61-3.3.89-.12.03-.25.06-.37.09-.95.24-1.91.46-2.88.67-.21.05-.43.09-.64.14-2.15.46-4.33.85-6.53,1.17-.27.04-.53.08-.8.11-.9.12-1.81.24-2.72.34-.21.02-.43.05-.64.07-1.09.11-2.19.21-3.28.29-.24.02-.48.03-.72.05-.89.06-1.77.11-2.66.14-.31.01-.62.03-.93.04-1.11.04-2.22.06-3.34.06-.9,0-1.79-.01-2.68-.03-4.45-.11-8.84-.51-13.13-1.16-1.72-.26-3.42-.57-5.11-.91-6.76-1.38-13.28-3.42-19.49-6.05-2.33-.99-4.62-2.05-6.85-3.2-2.98-1.53-5.89-3.2-8.7-5-.7-.45-1.4-.91-2.09-1.38-4.14-2.8-8.07-5.89-11.76-9.24-.61-.56-1.22-1.12-1.82-1.7-1.2-1.15-2.38-2.32-3.52-3.52-.57-.6-1.14-1.21-1.7-1.82-.57-.62-1.12-1.25-1.68-1.89-19.04,21.99-47.16,35.91-78.54,35.91-57.35,0-103.84-46.49-103.84-103.84s46.49-103.84,103.84-103.84c31.37,0,59.5,13.91,78.54,35.91.55-.64,1.11-1.27,1.68-1.89.56-.61,1.12-1.22,1.7-1.82.57-.6,1.15-1.2,1.74-1.78.59-.59,1.18-1.17,1.78-1.74s1.21-1.14,1.82-1.7c2.11-1.92,4.31-3.75,6.57-5.49,1.69-1.3,3.42-2.56,5.19-3.75.69-.47,1.39-.92,2.09-1.38,1.14-.73,2.31-1.44,3.48-2.13,1.71-1,3.45-1.96,5.22-2.87,2.24-1.15,4.52-2.21,6.85-3.2,1.55-.66,3.13-1.28,4.72-1.86,1.59-.58,3.2-1.13,4.82-1.63,3.25-1.01,6.57-1.87,9.95-2.56,1.69-.35,3.39-.65,5.11-.91.95-.14,1.9-.27,2.86-.39,1.64-.2,3.3-.37,4.97-.5,1.76-.13,3.53-.22,5.31-.27.89-.02,1.78-.03,2.68-.03,1.12,0,2.23.02,3.34.06.31,0,.62.02.93.04.89.04,1.78.08,2.66.14.24.02.48.03.72.05,1.1.08,2.2.18,3.29.29.21.02.42.05.64.07.91.1,1.82.21,2.72.34.27.04.54.07.8.11,2.2.32,4.38.71,6.53,1.17.22.05.43.09.64.14.96.21,1.92.43,2.88.67.12.03.25.06.37.09,1.11.28,2.21.58,3.3.89.07.02.13.04.2.06,1.02.3,2.03.61,3.04.94.14.04.27.09.41.13,2.16.71,4.3,1.49,6.4,2.34.08.03.15.06.23.09,3.22,1.31,6.36,2.78,9.41,4.39.03.01.05.03.08.04,2.06,1.09,4.07,2.25,6.05,3.47h0s26.79,16.87,57.92,16.87c33.14,0,56.58-14.56,61.14-17.23.27-.16.54-.32.81-.49.05-.03.08-.05.08-.05h0c15.55-9.28,33.73-14.63,53.16-14.63M551.58,73.38c-15.25,0-30.27,3.08-44.16,8.98l-13.76,7-.17.1c-.2.12-.4.24-.6.36l-.47.28c-21.87,12.95-42.54,15.67-56.04,15.67-28.02,0-52.88-15.35-53.13-15.5l-13.77-7.27c-1.05-.46-2.1-.91-3.16-1.34l-.07-.03-.18-.07c-2.28-.92-4.62-1.78-6.96-2.55l-.34-.11-.11-.04c-1.13-.37-2.24-.71-3.3-1.02l-.23-.07c-1.17-.34-2.37-.66-3.58-.97l-.3-.07-.1-.02c-1-.25-2.06-.5-3.12-.73l-.16-.04-.54-.12c-2.34-.5-4.73-.92-7.1-1.27-.24-.04-.49-.07-.73-.1l-.14-.02c-.98-.14-1.98-.26-2.96-.37l-.21-.02c-.16-.02-.32-.04-.48-.05-1.18-.12-2.38-.23-3.57-.32-.18-.01-.36-.02-.54-.03h-.24c-.96-.08-1.93-.13-2.9-.17h-.09c-.31-.02-.61-.03-.92-.04-1.37-.04-2.53-.06-3.63-.06-.96,0-1.94.01-2.91.04-1.91.05-3.85.15-5.76.29-1.76.13-3.57.32-5.4.54-1.12.14-2.13.28-3.1.43-1.86.28-3.73.62-5.56.99-3.64.74-7.28,1.68-10.82,2.78-1.76.55-3.52,1.14-5.25,1.78-1.72.63-3.44,1.31-5.13,2.02-2.51,1.06-5.02,2.23-7.45,3.48-1.84.94-3.75,1.99-5.67,3.12-1.39.82-2.63,1.57-3.78,2.31-.76.49-1.52.99-2.27,1.49-1.85,1.25-3.75,2.62-5.64,4.08-2.49,1.92-4.89,3.92-7.14,5.96-.67.61-1.33,1.22-1.98,1.84-.23.22-.46.44-.69.66-20.97-20.33-49.08-31.82-78.54-31.82s-58.48,11.74-79.79,33.05c-21.31,21.31-33.05,49.65-33.05,79.79s11.74,58.48,33.05,79.79c21.31,21.31,49.65,33.05,79.79,33.05s57.56-11.49,78.54-31.82c.23.22.46.44.69.66.65.62,1.31,1.24,1.98,1.84,4,3.64,8.3,7.02,12.78,10.04.75.51,1.51,1.01,2.27,1.49,3.05,1.96,6.23,3.78,9.45,5.43,2.43,1.24,4.94,2.42,7.45,3.48,6.81,2.88,13.95,5.1,21.19,6.58,1.83.38,3.7.71,5.56.99,4.69.72,9.49,1.14,14.26,1.26.96.02,1.94.04,2.91.04,1.1,0,2.26-.02,3.63-.06.31,0,.61-.02.92-.03h.09c.96-.04,1.94-.09,2.89-.16l.24-.02c.18-.01.36-.02.54-.03,1.19-.09,2.39-.19,3.57-.32.16-.02.33-.04.49-.06l.21-.02c.97-.11,1.96-.23,2.95-.37l.13-.02c.25-.03.5-.07.74-.1,2.37-.35,4.76-.77,7.1-1.27l.52-.11.17-.04c1.07-.23,2.12-.48,3.13-.73l.1-.02.3-.07c1.2-.3,2.41-.63,3.59-.97l.2-.06c1.08-.31,2.16-.65,3.32-1.02l.09-.03.36-.12c2.33-.77,4.67-1.62,6.95-2.54l.18-.07.07-.03c1.05-.43,2.09-.87,3.13-1.33l14.18-7.52c6.59-3.97,32.1-16.95,52.74-16.95,26.65,0,56.17,17.45,57.41,18.19,17.42,10.4,37.4,15.9,57.78,15.9,29.51,0,57.64-11.52,78.63-31.91,21.07,20.94,49.53,32.77,79.5,32.77s58.48-11.74,79.79-33.05c21.31-21.31,33.05-49.65,33.05-79.79s-11.74-58.48-33.05-79.79c-21.31-21.31-49.65-33.05-79.79-33.05s-57.64,11.52-78.63,31.91c-21.07-20.94-49.53-32.77-79.5-32.77h0Z"/>
    </g>
  </g>
  <g id="_x33_-fadein-build" class="2-fade-in">
    <path class="st25" d="M551.58,82.38c-19.43,0-37.61,5.34-53.16,14.63h0s-.03.02-.08.05c-.27.16-.54.32-.81.49-4.56,2.68-27.99,17.23-61.14,17.23-31.13,0-57.92-16.88-57.92-16.88h0c-15.87-9.83-34.58-15.52-54.63-15.52-57.35,0-103.84,46.49-103.84,103.84s46.49,103.84,103.84,103.84c20.04,0,38.76-5.69,54.63-15.52h0s.02,0,.02-.01c2.43-1.51,31.99-18.56,57.9-18.56,28.58,0,58.82,17.55,62.03,19.46h0c15.55,9.29,33.73,14.63,53.16,14.63,57.35,0,103.84-46.49,103.84-103.84s-46.49-103.84-103.84-103.84Z"/>
    <text class="st3" transform="translate(525.09 52.87)"><tspan x="0" y="0">Build</tspan></text>
    <g>
      <path class="st7" d="M449.15,156.82c.48-.54.44-1.36-.1-1.85s-1.36-.44-1.85.1l-3,3.33-1.2-1.2c-.51-.51-1.34-.51-1.85,0s-.51,1.34,0,1.85l2.18,2.18c.26.26.6.39.96.38s.7-.16.94-.43l3.92-4.36h0ZM449.15,165.54c.48-.54.44-1.36-.1-1.85s-1.36-.44-1.85.1l-3,3.33-1.2-1.2c-.51-.51-1.34-.51-1.85,0s-.51,1.34,0,1.85l2.18,2.18c.26.26.6.39.96.38s.7-.16.94-.43l3.92-4.36h0ZM443.38,178.17c1.44,0,2.62-1.17,2.62-2.62s-1.17-2.62-2.62-2.62-2.62,1.17-2.62,2.62,1.17,2.62,2.62,2.62Z"/>
      <path class="st8" d="M449.49,175.56c0,.96.78,1.74,1.74,1.74h15.69c.96,0,1.74-.78,1.74-1.74s-.78-1.74-1.74-1.74h-15.69c-.96,0-1.74.78-1.74,1.74ZM452.97,166.84c0,.96.78,1.74,1.74,1.74h12.2c.96,0,1.74-.78,1.74-1.74s-.78-1.74-1.74-1.74h-12.2c-.96,0-1.74.78-1.74,1.74ZM454.72,159.87h12.2c.96,0,1.74-.78,1.74-1.74s-.78-1.74-1.74-1.74h-12.2c-.96,0-1.74.78-1.74,1.74s.78,1.74,1.74,1.74Z"/>
    </g>
    <g>
      <path class="st8" d="M556.84,188.54l8.4-3.88,2.94,1.36c.47.22.77.69.77,1.2s-.3.99-.77,1.2l-12.08,5.58c-.82.38-1.77.38-2.6,0l-12.08-5.58c-.47-.22-.77-.69-.77-1.2s.3-.99.77-1.2l2.94-1.36,8.4,3.88c1.29.6,2.78.6,4.08,0h0Z"/>
      <g>
        <path class="st7" d="M568.18,193.09l-2.94-1.36-8.4,3.88c-1.29.6-2.78.6-4.08,0l-8.4-3.88-2.94,1.36c-.47.22-.77.69-.77,1.2s.3.98.77,1.2l12.08,5.58c.82.38,1.77.38,2.6,0l12.08-5.58c.47-.22.77-.69.77-1.2s-.3-.99-.77-1.2Z"/>
        <path class="st7" d="M541.43,181.35l12.08,5.58c.82.38,1.77.38,2.6,0l12.08-5.58c.47-.22.77-.69.77-1.2s-.3-.99-.77-1.2l-12.08-5.58c-.82-.38-1.77-.38-2.6,0l-12.08,5.58c-.47.22-.77.69-.77,1.2s.3.98.77,1.2ZM556.82,178.85c-.18-.18-.18-.48,0-.66.18-.18.48-.18.66,0l1.17,1.17c.18.18.18.48,0,.66l-1.17,1.17c-.18.18-.48.18-.66,0-.18-.18-.18-.48,0-.66l.84-.84-.84-.84ZM554.81,176.8c.04-.26.28-.43.54-.39.26.04.43.28.39.54l-.94,5.63c-.04.26-.28.43-.54.39s-.43-.28-.39-.54l.94-5.63ZM550.96,179.36l1.17-1.17c.18-.18.48-.18.66,0s.18.48,0,.66l-.84.84.84.84c.18.18.18.48,0,.66s-.48.18-.66,0l-1.17-1.17c-.18-.18-.18-.48,0-.66Z"/>
      </g>
    </g>
    <circle class="st20" cx="553.54" cy="187.08" r="46.31"/>
    <polygon class="st7" points="577.78 147.56 569.23 134.77 562.43 148.56 577.78 147.56"/>
    <polygon class="st7" points="526.31 224.9 534.85 237.69 541.66 223.9 526.31 224.9"/>
    <g>
      <line class="st11" x1="414.58" y1="191.7" x2="488.87" y2="191.7"/>
      <polygon class="st7" points="486.07 195.4 487.64 191.7 486.07 188 494.84 191.7 486.07 195.4"/>
    </g>
    <text class="st6" transform="translate(522.32 109.36)"><tspan x="0" y="0">Implement</tspan></text>
    <text class="st6" transform="translate(529.72 271.72)"><tspan x="0" y="0">Validate</tspan></text>
    <text class="st5" transform="translate(435.45 211.72)"><tspan x="0" y="0">Backlog</tspan></text>
  </g>
  <g id="_x31_-fadein-explore" class="3-fade-in">
    <text class="st1" transform="translate(123.96 52.57)"><tspan x="0" y="0">Explore</tspan></text>
    <circle class="st26" cx="166.77" cy="186.22" r="103.84"/>
    <g>
      <path class="st7" d="M130.8,150.9c0-.72.58-1.31,1.31-1.31,6.98,0,12.64,5.66,12.64,12.64,0,.72-.58,1.31-1.31,1.31s-1.31-.58-1.31-1.31c0-5.54-4.49-10.02-10.02-10.02-.72,0-1.31-.58-1.31-1.31ZM130.8,161.8c0-.96.78-1.74,1.74-1.74s1.74.78,1.74,1.74-.78,1.74-1.74,1.74-1.74-.78-1.74-1.74ZM132.1,154.82c4.09,0,7.41,3.32,7.41,7.41,0,.72-.58,1.31-1.31,1.31s-1.31-.58-1.31-1.31c0-2.65-2.15-4.79-4.79-4.79-.72,0-1.31-.58-1.31-1.31s.58-1.31,1.31-1.31Z"/>
      <path class="st8" d="M125.83,150.93c-.42-1.01-1.53-1.55-2.58-1.26l-4.79,1.31c-.95.26-1.61,1.12-1.61,2.1,0,13.48,10.93,24.41,24.41,24.41.98,0,1.84-.66,2.1-1.61l1.31-4.79c.29-1.06-.25-2.16-1.26-2.58l-5.23-2.18c-.89-.37-1.92-.11-2.52.63l-2.2,2.69c-3.84-1.81-6.94-4.92-8.76-8.76l2.69-2.2c.75-.61,1-1.63.63-2.52l-2.18-5.23h0Z"/>
    </g>
    <g>
      <line class="st11" x1="65.03" y1="191.7" x2="68.03" y2="191.7"/>
      <line class="st16" x1="73.72" y1="191.7" x2="173.43" y2="191.7"/>
      <line class="st11" x1="176.28" y1="191.7" x2="179.28" y2="191.7"/>
    </g>
    <g>
      <line class="st19" x1="65.03" y1="191.7" x2="62.03" y2="191.7"/>
      <line class="st13" x1="55.41" y1="191.7" x2="32.27" y2="191.7"/>
      <line class="st19" x1="28.96" y1="191.7" x2="25.96" y2="191.7"/>
    </g>
    <text class="st6" transform="translate(148.12 106.79)"><tspan x="0" y="0">Clarify</tspan><tspan x="-9.27" y="15.6">Problems</tspan></text>
    <text class="st6" transform="translate(144.91 260.32)"><tspan x="0" y="0">Identify</tspan><tspan x="-17.77" y="15.6">Opportunities</tspan></text>
    <text class="st5" transform="translate(88.35 211.72)"><tspan x="0" y="0">Exploration Call</tspan></text>
  </g>
  <g id="_x32_-fadein-plan" class="1-fade-in">
    <circle id="_x33_-fadeout" class="st4" cx="323.85" cy="186.22" r="103.84"/>
    <g>
      <path class="st7" d="M403.82,159.8l-8.72-8.72v6.97c0,.96.78,1.74,1.74,1.74h6.97ZM390.21,171.88l.53-1.79.91,3.03c.1.34.4.59.76.62s.7-.16.86-.48l.48-.96c.09-.19.28-.3.48-.3s.39.11.48.3l.48.96c.15.29.45.48.78.48h3.49c.48,0,.87-.39.87-.87s-.39-.87-.87-.87h-2.94l-.24-.48c-.39-.77-1.18-1.26-2.04-1.26-.54,0-1.06.19-1.46.53l-.63-2.1c-.19-.62-.75-1.04-1.39-1.04s-1.21.42-1.39,1.04l-.81,2.7c-.11.37-.45.62-.83.62h-.45c-.48,0-.87.39-.87.87s.39.87.87.87h.45c1.16,0,2.17-.76,2.51-1.86Z"/>
      <path class="st8" d="M382.9,154.57c0-1.92,1.56-3.49,3.49-3.49h8.72v6.97c0,.96.78,1.74,1.74,1.74h6.97v15.69c0,1.92-1.56,3.49-3.49,3.49h-13.95c-1.92,0-3.49-1.56-3.49-3.49v-20.92ZM387.26,154.57c-.48,0-.87.39-.87.87s.39.87.87.87h3.49c.48,0,.87-.39.87-.87s-.39-.87-.87-.87h-3.49ZM387.26,158.05c-.48,0-.87.39-.87.87s.39.87.87.87h3.49c.48,0,.87-.39.87-.87s-.39-.87-.87-.87h-3.49ZM390.21,171.88l.53-1.79.91,3.03c.1.34.4.59.76.62s.7-.16.86-.48l.48-.96c.09-.19.28-.3.48-.3s.39.11.48.3l.48.96c.15.29.45.48.78.48h3.49c.48,0,.87-.39.87-.87s-.39-.87-.87-.87h-2.94l-.24-.48c-.39-.77-1.18-1.26-2.04-1.26-.54,0-1.06.19-1.46.53l-.63-2.1c-.19-.62-.75-1.04-1.39-1.04s-1.21.42-1.39,1.04l-.81,2.7c-.11.37-.45.62-.83.62h-.45c-.48,0-.87.39-.87.87s.39.87.87.87h.45c1.16,0,2.17-.76,2.51-1.86Z"/>
    </g>
    <g>
      <path class="st7" d="M316.42,172.68c1.62,0,2.92-1.31,2.92-2.92s-1.31-2.92-2.92-2.92-2.92,1.31-2.92,2.92,1.31,2.92,2.92,2.92ZM314.96,174.15c-1.61,0-2.92,1.31-2.92,2.92,0,.81.65,1.46,1.46,1.46h5.85c.81,0,1.46-.65,1.46-1.46,0-1.61-1.31-2.92-2.92-2.92h-2.92ZM326.66,172.68c1.62,0,2.92-1.31,2.92-2.92s-1.31-2.92-2.92-2.92-2.92,1.31-2.92,2.92,1.31,2.92,2.92,2.92ZM325.2,174.15c-1.61,0-2.92,1.31-2.92,2.92,0,.81.65,1.46,1.46,1.46h5.85c.81,0,1.46-.65,1.46-1.46,0-1.61-1.31-2.92-2.92-2.92h-2.92ZM339.82,169.76c0-1.62-1.31-2.92-2.92-2.92s-2.92,1.31-2.92,2.92,1.31,2.92,2.92,2.92,2.92-1.31,2.92-2.92ZM332.51,177.07c0,.81.65,1.46,1.46,1.46h5.85c.81,0,1.46-.65,1.46-1.46,0-1.61-1.31-2.92-2.92-2.92h-2.92c-1.61,0-2.92,1.31-2.92,2.92Z"/>
      <path class="st7" d="M324.92,155.81v-3.06h9.17v9.17h-9.17v-3.06h-3.06v3.82c0,1.27,1.03,2.29,2.29,2.29h10.7c1.27,0,2.29-1.03,2.29-2.29v-10.7c0-1.27-1.03-2.29-2.29-2.29h-10.7c-1.27,0-2.29,1.03-2.29,2.29v3.82h3.06Z"/>
      <path class="st8" d="M313.45,151.99c0-1.27,1.03-2.29,2.29-2.29s2.29,1.03,2.29,2.29-1.03,2.29-2.29,2.29-2.29-1.03-2.29-2.29ZM315.36,166.51v6.12c0,.85-.68,1.53-1.53,1.53s-1.53-.68-1.53-1.53v-10.66l-1.37,2.27c-.43.72-1.38.96-2.1.52s-.96-1.38-.52-2.1l2.79-4.63c.83-1.38,2.32-2.23,3.93-2.23h10.65c.85,0,1.53.68,1.53,1.53s-.68,1.53-1.53,1.53h-6.5v13.77c0,.85-.68,1.53-1.53,1.53s-1.53-.68-1.53-1.53v-6.12h-.76Z"/>
    </g>
    <g>
      <line class="st11" x1="297.54" y1="191.7" x2="300.54" y2="191.7"/>
      <line class="st9" x1="306.62" y1="191.7" x2="400.8" y2="191.7"/>
      <line class="st11" x1="403.83" y1="191.7" x2="406.83" y2="191.7"/>
    </g>
    <text class="st6" transform="translate(302.33 106.79)"><tspan x="0" y="0">Specify</tspan><tspan x="-26.98" y="15.6">Project Proposal</tspan></text>
    <text class="st6" transform="translate(283.57 260.32)"><tspan x="0" y="0">Define Product</tspan><tspan x="19.75" y="15.6">Backlog</tspan></text>
    <text class="st5" transform="translate(371.9 211.72)"><tspan x="0" y="0">Proposal</tspan></text>
    <text class="st5" transform="translate(298.82 211.72)"><tspan x="0" y="0">Workshop</tspan></text>
    <text class="st0" transform="translate(301.25 53.17)"><tspan x="0" y="0">Plan</tspan></text>
    <g>
      <line class="st11" x1="245.54" y1="124.05" x2="245.54" y2="155.41"/>
      <polygon class="st7" points="241.83 152.6 245.54 154.18 249.24 152.6 245.54 161.38 241.83 152.6"/>
    </g>
    <g>
      <line class="st11" x1="245.54" y1="217.03" x2="245.54" y2="248.39"/>
      <polygon class="st7" points="241.83 219.84 245.54 218.26 249.24 219.84 245.54 211.06 241.83 219.84"/>
    </g>
    <text class="st6" transform="translate(225.64 190.11)"><tspan x="0" y="0">Ideate</tspan></text>
    <g>
      <path class="st14" d="M292.15,188.88c.41.41.82.82,1.24,1.23-.46.36-.91.72-1.36,1.08"/>
      <path class="st22" d="M289.46,193.35c-21.77,18.91-37.55,48.57-42.29,58.14"/>
      <path class="st14" d="M246.42,253c-.49,1.02-.74,1.57-.74,1.57,0,0-.32-.51-.94-1.46"/>
      <path class="st10" d="M242.82,250.29c-7.06-10.17-26.91-36.45-56.15-56.66"/>
      <path class="st14" d="M185.26,192.67c-.48-.33-.96-.65-1.45-.97.44-.37.89-.75,1.33-1.12"/>
      <path class="st21" d="M187.76,188.31c28.62-25.23,50.11-57.84,56.3-67.71"/>
      <path class="st14" d="M244.97,119.13c.59-.97.9-1.49.9-1.49,0,0,.18.57.56,1.64"/>
      <path class="st18" d="M247.61,122.43c4.26,10.84,16.87,38.42,43.35,65.26"/>
    </g>
  </g>
  <g id="_x34_-fadein-operate" class="4-fade-in">
    <g id="Phases">
      <circle class="st23" cx="558.31" cy="136.01" r="111.62"/>
      <path class="st23" d="M507.03,235.17s-34.33-24.19-76.09-24.19-74.87,19.32-74.87,19.32V39.12s33.11,17.31,74.87,17.31,76.09-19.59,76.09-19.59v198.33Z"/>
      <circle class="st27" cx="709.71" cy="187.08" r="103.84"/>
      <text class="st2" transform="translate(663.82 52.57)"><tspan x="0" y="0">Operate</tspan></text>
      <path class="st23" d="M220.01,186.22c0,25.97,9.54,49.72,25.3,67.93,15.76-18.21,25.3-41.95,25.3-67.93s-9.54-49.72-25.3-67.93c-15.76,18.21-25.3,41.95-25.3,67.93Z"/>
      <path class="st24" d="M605.87,187.08c0,25.48,9.18,48.81,24.41,66.87,15.66-18.18,25.14-41.85,25.14-67.74s-9.18-48.81-24.41-66.87c-15.66,18.18-25.14,41.85-25.14,67.74Z"/>
    </g>
    <g>
      <path class="st15" d="M553.54,140.77s.7-.09,1.96-.17"/>
      <path class="st17" d="M559.4,140.46c14.32-.12,51.27,3.53,69.97,42.06,17.26,35.57,60.64,45.7,73.86,48"/>
      <path class="st15" d="M705.16,230.84c1.26.19,1.95.27,1.95.27"/>
    </g>
    <g>
      <path class="st15" d="M707.11,138.49s-.7.02-1.97.13"/>
      <path class="st12" d="M701.25,139.03c-14.51,1.83-52.3,9.75-71.31,43.5-22.72,40.33-60.35,48.75-72.5,50.45"/>
      <path class="st15" d="M555.5,233.22c-1.27.14-1.96.17-1.96.17"/>
    </g>
    <g>
      <path class="st7" d="M702,173.29c.72,0,1.29.58,1.29,1.29s-.58,1.29-1.29,1.29-1.29-.58-1.29-1.29.58-1.29,1.29-1.29ZM702,178.9c2.38,0,4.32-1.93,4.32-4.32s-1.93-4.32-4.32-4.32-4.32,1.93-4.32,4.32,1.93,4.32,4.32,4.32ZM702,192.28c.72,0,1.29.58,1.29,1.29s-.58,1.29-1.29,1.29-1.29-.58-1.29-1.29.58-1.29,1.29-1.29ZM702,197.89c2.38,0,4.32-1.93,4.32-4.32s-1.93-4.32-4.32-4.32-4.32,1.93-4.32,4.32,1.93,4.32,4.32,4.32ZM719.69,193.57c0-.72.58-1.29,1.29-1.29s1.29.58,1.29,1.29-.58,1.29-1.29,1.29-1.29-.58-1.29-1.29ZM725.3,193.57c0-2.38-1.93-4.32-4.32-4.32s-4.32,1.93-4.32,4.32,1.93,4.32,4.32,4.32,4.32-1.93,4.32-4.32Z"/>
      <path class="st8" d="M703.73,178.54c-.53.23-1.11.36-1.73.36s-1.2-.13-1.73-.36v11.08c.53-.23,1.11-.36,1.73-.36s1.2.13,1.73.36v-11.08ZM719.26,189.62c.53-.23,1.11-.36,1.73-.36s1.2.13,1.73.36v-8.99c0-3.81-3.09-6.9-6.9-6.9h-.86v-2.16c0-.51-.3-.98-.77-1.18s-1.01-.12-1.4.22l-4.32,3.88c-.28.25-.43.59-.43.96s.16.72.43.96l4.32,3.88c.38.34.93.43,1.39.22s.77-.67.77-1.18v-2.16h.86c1.9,0,3.45,1.55,3.45,3.45v8.99h0Z"/>
    </g>
    <g>
      <circle class="st20" cx="709.71" cy="184.8" r="46.31"/>
      <polygon class="st7" points="685.47 145.28 694.02 132.49 700.82 146.28 685.47 145.28"/>
      <polygon class="st7" points="736.94 222.62 728.4 235.41 721.59 221.62 736.94 222.62"/>
    </g>
    <text class="st6" transform="translate(697.24 109.36)"><tspan x="0" y="0">Scale</tspan></text>
    <text class="st6" transform="translate(692.45 271.72)"><tspan x="0" y="0">Adapt</tspan></text>
  </g>
</svg>